<svg xmlns="http://www.w3.org/2000/svg" width="7.75" height="7.978" viewBox="0 0 7.75 7.978">
  <path id="Icon_awesome-coins" data-name="Icon awesome-coins" d="M0,16.81v.968c0,.8,1.736,1.451,3.875,1.451s3.875-.65,3.875-1.451V16.81a6.7,6.7,0,0,1-3.875.968A6.7,6.7,0,0,1,0,16.81Zm0-2.378V15.6c0,.8,1.736,1.451,3.875,1.451S7.75,16.4,7.75,15.6V14.432A5.982,5.982,0,0,1,3.875,15.6,5.982,5.982,0,0,1,0,14.432ZM3.875,11.25C1.736,11.25,0,12.061,0,13.063s1.736,1.813,3.875,1.813,3.875-.811,3.875-1.813S6.014,11.25,3.875,11.25Z" transform="translate(0 -11.25)" fill="#f79e09"/>
</svg>
