<svg width="206" height="136" viewBox="0 0 206 136" fill="none" xmlns="http://www.w3.org/2000/svg">
<path d="M71.6192 52.5561C66.2618 53.4092 60.9231 54.1911 55.606 55.1286C47.6991 56.5285 39.8386 57.4356 31.9271 54.724C15.0508 48.9422 7.03942 28.5196 15.7336 13.3273C18.0821 9.23283 21.7422 7.33257 25.9062 8.03376C30.103 8.73501 33.4349 12.1196 34.0035 16.7834C34.3467 19.6439 34.0549 22.5617 34.1887 25.4478C34.4511 31.3302 37.4697 34.2862 43.4027 33.8621C47.751 33.5584 52.0229 32.3791 56.3752 31.8679C63.47 31.0503 70.6239 29.7139 77.725 29.9468C90.2683 30.3514 97.1975 37.9121 97.4753 50.3769C97.5695 54.3071 97.2181 58.2429 97.0449 62.8146C98.626 62.4023 99.9393 62.0674 101.253 61.7325C107.283 60.1801 113.215 58.0958 119.345 57.1727C133.365 55.0831 142.586 62.4209 144.304 76.3863C145.157 83.3982 146.618 84.4254 153.622 82.5634C157.208 81.6099 160.671 80.2087 164.259 79.32C173.668 77.0018 181.416 80.8092 184.825 89.8878C189.23 101.666 190.454 113.776 187.367 126.014C186.355 130.059 184.859 130.53 181.654 127.82C174.58 121.848 170.552 114.026 167.628 105.493C165.738 99.9517 165.657 100.282 159.895 100.759C153.57 101.279 147.134 101.826 140.854 101.225C132.12 100.379 125.401 95.4843 120.911 87.9991C119.392 85.4608 117.871 84.9199 115.131 85.4533C109.279 86.578 103.38 87.6636 97.4364 88.2433C83.4403 89.6196 75.2765 83.464 72.9437 69.6466C72.0646 64.2495 72.0751 58.7112 71.6192 52.5561Z" fill="#DCDFE4"/>
</svg>
