<svg width="203" height="207" viewBox="0 0 203 207" fill="none" xmlns="http://www.w3.org/2000/svg">
<path d="M74.2168 125.171C76.7188 123.058 79.2652 120.99 81.7139 118.808C87.3527 113.791 92.9137 108.678 98.557 103.672C100.464 101.984 102.421 100.327 104.535 98.9262C113.607 92.9155 122.707 94.8388 127.63 104.736C131.203 111.914 133.324 119.832 136.113 127.41C137.568 131.36 139.077 135.288 140.539 139.223C145.388 152.276 162.397 155.779 172.442 148.209C177.001 144.77 180.373 140.599 182.298 135.162C183.259 132.438 184.225 129.699 185.502 127.127C186.614 124.893 188.497 123.331 191.213 124.215C193.868 125.072 194.532 127.382 194.467 129.916C194.439 130.982 194.264 132.057 194.038 133.102C190.865 147.605 175.055 162.61 160.552 164.899C144.197 167.477 132.104 161.095 125.277 145.734C122.355 139.15 120.315 132.163 117.798 125.398C116.726 122.498 115.451 119.656 114.099 116.383C112.354 117.76 110.665 118.843 109.277 120.226C103.797 125.718 98.4582 131.369 92.9532 136.833C89.561 140.188 86.0008 143.382 82.4026 146.515C81.2217 147.542 79.7156 148.242 78.2668 148.866C67.3601 153.616 57.0408 148.07 55.551 136.11C54.3963 126.829 54.0315 117.439 53.691 108.078C53.193 94.2045 53.095 80.3203 52.6709 66.4422C52.5704 63.2308 51.9175 60.0289 51.4585 56.8371C51.0565 54.0588 49.6282 53.0802 47.0074 54.3559C37.1478 59.1622 30.7393 67.1201 26.8917 77.2986C26.6065 78.0464 27.3259 79.4207 27.9276 80.265C29.216 82.0985 30.9865 83.6299 32.0851 85.5547C33.6258 88.274 32.6929 90.5752 29.7316 91.2715C23.7983 92.6685 17.94 92.3502 13.245 87.8097C8.80205 83.5122 8.25661 77.9388 10.4065 72.5247C16.8357 56.3552 28.4496 45.5139 44.9599 40.557C53.3622 38.0371 60.9777 41.7824 64.4115 50.0326C66.6656 55.4273 68.2716 61.334 68.86 67.1339C70.1204 79.5479 70.4712 92.0548 71.3037 104.504C71.7574 111.324 72.4326 118.13 73.0124 124.949C73.4243 124.997 73.8128 125.081 74.2168 125.171Z" fill="#DCDFE4"/>
</svg>

