<svg width="79" height="79" viewBox="0 0 79 79" fill="none" xmlns="http://www.w3.org/2000/svg">
<g clip-path="url(#clip0_1_1666)">
<path d="M14.6205 30.4099L13.2405 31.7899" stroke="white" stroke-width="2" stroke-linecap="round" stroke-linejoin="round"/>
<path d="M13.2405 30.4099L14.6205 31.7899" stroke="white" stroke-width="2" stroke-linecap="round" stroke-linejoin="round"/>
</g>
<path d="M59.9905 31.4765H56.0405L52.3374 37.7101C52.3374 37.7101 48.5726 31.5999 48.264 31.5999C47.9554 31.5999 44.2522 37.7101 44.2522 37.7101L40.4874 31.4765H38.6976C35.7351 31.4765 32.7108 32.6492 30.4272 34.9328L24.1936 41.1663L18.3921 28.5757C17.4663 26.539 15.7999 25.0578 13.7015 24.3171C11.603 23.5765 9.38115 23.6382 7.28271 24.564C3.82646 26.107 2.34521 30.2421 4.01162 33.6367L13.4546 53.757L12.4054 54.8062C10.8624 56.4726 10.8624 59.0031 12.4671 60.546C13.7015 61.7804 15.4913 62.0273 17.0343 61.3484L17.528 62.3976C18.5155 64.3726 20.5522 65.607 22.7124 65.607C22.9593 65.607 23.2061 65.607 23.453 65.5453L24.996 69.0015C25.1811 69.4335 25.5515 69.557 25.9218 69.557C26.1069 69.557 26.2304 69.557 26.3538 69.4953C31.4147 67.1499 33.6366 61.0398 31.2913 56.0406L28.0202 49.0664L33.5132 43.5734C33.7601 43.3265 34.0069 43.2648 34.3155 43.2648C34.9944 43.2648 35.4882 43.7585 35.4882 44.314V75.8523H61.1015V45.4867C61.1015 44.8078 61.5952 44.314 62.2741 44.314C62.953 44.314 63.4468 44.8078 63.4468 45.4867V71.7789C63.4468 74.0624 65.2366 75.8523 67.5202 75.8523C69.8038 75.8523 71.5936 74.0624 71.5936 71.7789V43.2031C71.6554 36.7226 66.4093 31.4765 59.9905 31.4765ZM15.0593 52.214L7.77646 36.7226C9.07255 37.0312 10.3686 36.9695 11.603 36.414C13.9483 35.2414 15.0593 32.464 13.8866 30.1187C12.9608 28.1437 10.5538 27.2796 8.5788 28.1437C8.08505 28.3906 7.83818 28.946 8.08505 29.5632C8.33193 30.057 8.8874 30.3039 9.50458 30.057C10.4921 29.5632 11.6647 30.057 12.0968 31.0445C12.7757 32.3406 12.1585 34.007 10.8007 34.6242C9.8749 35.0562 8.8874 35.1179 8.02333 34.6859C7.09755 34.3773 6.35693 33.6984 5.98662 32.7726C4.81396 30.4273 5.9249 27.5265 8.27021 26.3539C9.75146 25.6132 11.4796 25.5515 13.0226 26.107C14.5655 26.6624 15.7999 27.8351 16.5405 29.3781C18.4538 33.3898 16.7257 38.2039 12.5905 40.1171C12.0968 40.364 11.8499 40.9195 12.0968 41.5367L16.7874 51.2882C16.1085 51.4734 15.553 51.782 15.0593 52.214ZM19.3179 61.5335L18.639 60.0523L20.1202 58.571L22.4655 63.5703C21.1694 63.5085 19.8733 62.7679 19.3179 61.5335ZM29.378 56.8429C31.1061 60.6078 29.8101 64.9281 26.3538 67.0882L21.4163 56.596C21.9101 55.1148 21.6015 53.5101 20.4288 52.3374C19.9968 51.9054 19.503 51.5968 18.9476 51.4117L14.3804 41.4132C16.8491 39.932 18.4538 37.4632 19.071 34.8093L29.378 56.8429Z" fill="white"/>
<path d="M48.7579 28.7608C54.0072 28.7608 58.2626 24.5054 58.2626 19.2562C58.2626 14.0069 54.0072 9.75146 48.7579 9.75146C43.5086 9.75146 39.2532 14.0069 39.2532 19.2562C39.2532 24.5054 43.5086 28.7608 48.7579 28.7608Z" fill="white"/>
<defs>
<clipPath id="clip0_1_1666">
<rect width="2.76" height="2.76" fill="white" transform="translate(12.5505 29.72)"/>
</clipPath>
</defs>
</svg>
