<svg width="712" height="500" viewBox="0 0 712 500" fill="none" xmlns="http://www.w3.org/2000/svg" style="
    margin-top: 100px;">
<circle cx="534" cy="178.547" r="178" fill="url(#paint0_linear_35_26)" fill-opacity="0.2"/>
<circle cx="135.865" cy="398.411" r="99.4594" transform="rotate(-150 135.865 398.411)" fill="url(#paint1_linear_35_26)" fill-opacity="0.2"/>
<path d="M612.981 97.2798C613.857 96.5398 614.748 95.816 615.605 95.0522C617.579 93.296 619.526 91.506 621.502 89.7535C622.169 89.1627 622.854 88.5825 623.595 88.0922C626.77 85.988 629.956 86.6613 631.679 90.1262C632.93 92.6387 633.672 95.4107 634.649 98.0634C635.158 99.4464 635.687 100.821 636.198 102.199C637.896 106.768 643.85 107.995 647.367 105.345C648.962 104.141 650.143 102.681 650.817 100.777C651.153 99.8237 651.491 98.8647 651.938 97.9645C652.328 97.1824 652.987 96.6356 653.938 96.9448C654.867 97.245 655.1 98.0537 655.077 98.9409C655.067 99.3139 655.006 99.6904 654.927 100.056C653.816 105.133 648.281 110.386 643.204 111.187C637.479 112.09 633.245 109.855 630.856 104.478C629.833 102.173 629.118 99.7272 628.237 97.3591C627.862 96.3438 627.416 95.349 626.942 94.2032C626.332 94.6851 625.74 95.0644 625.255 95.5487C623.336 97.4711 621.467 99.4495 619.54 101.362C618.352 102.537 617.106 103.655 615.847 104.751C615.433 105.111 614.906 105.356 614.399 105.575C610.581 107.238 606.968 105.296 606.447 101.109C606.042 97.8599 605.915 94.5729 605.796 91.2959C605.621 86.4393 605.587 81.5789 605.438 76.7206C605.403 75.5964 605.175 74.4755 605.014 73.3581C604.873 72.3855 604.373 72.043 603.456 72.4895C600.004 74.1721 597.761 76.9579 596.414 80.521C596.314 80.7828 596.566 81.2639 596.777 81.5595C597.228 82.2013 597.847 82.7374 598.232 83.4112C598.771 84.3632 598.445 85.1688 597.408 85.4125C595.331 85.9016 593.28 85.7901 591.637 84.2007C590.081 82.6963 589.89 80.7452 590.643 78.8499C592.894 73.1894 596.959 69.3942 602.739 67.659C605.68 66.7768 608.346 68.088 609.548 70.9761C610.338 72.8646 610.9 74.9323 611.106 76.9627C611.547 81.3085 611.67 85.6867 611.961 90.0449C612.12 92.4323 612.356 94.8147 612.559 97.2019C612.704 97.2189 612.84 97.2482 612.981 97.2798Z" fill="#DCDFE4"/>
<path d="M118.539 321.559C118.385 320.656 118.247 319.748 118.069 318.848C117.659 316.776 117.215 314.709 116.808 312.638C116.672 311.939 116.55 311.231 116.512 310.523C116.35 307.482 118.105 305.56 121.191 305.777C123.429 305.934 125.64 306.546 127.863 306.949C129.022 307.159 130.184 307.352 131.34 307.558C135.177 308.241 138.435 304.636 138.035 301.139C137.852 299.551 137.325 298.146 136.287 296.91C135.766 296.292 135.243 295.67 134.804 294.997C134.423 294.412 134.313 293.736 134.912 293.206C135.495 292.688 136.147 292.855 136.749 293.231C137.002 293.389 137.236 293.583 137.456 293.786C140.504 296.61 141.879 302.552 140.373 306.375C138.674 310.685 135.418 312.696 130.745 312.163C128.742 311.933 126.767 311.434 124.779 311.081C123.927 310.927 123.061 310.832 122.08 310.693C122.164 311.31 122.186 311.871 122.322 312.402C122.869 314.503 123.474 316.592 124.011 318.695C124.339 319.99 124.604 321.302 124.849 322.614C124.929 323.045 124.884 323.507 124.829 323.945C124.427 327.25 121.625 328.952 118.529 327.614C116.126 326.575 113.81 325.33 111.504 324.084C108.087 322.235 104.725 320.289 101.317 318.422C100.529 317.99 99.6637 317.693 98.8287 317.351C98.1016 317.054 97.6629 317.259 97.5986 318.072C97.3587 321.132 98.3685 323.807 100.277 326.18C100.417 326.355 100.851 326.376 101.14 326.351C101.765 326.3 102.385 326.091 103.006 326.099C103.88 326.113 104.303 326.665 104.05 327.478C103.545 329.107 102.637 330.475 100.876 330.963C99.2088 331.424 97.7872 330.765 96.7865 329.478C93.7991 325.633 92.8325 321.293 93.9801 316.608C94.5647 314.224 96.5487 312.919 99.0258 313.261C100.647 313.483 102.299 313.934 103.782 314.615C106.955 316.073 110.021 317.763 113.141 319.329C114.851 320.187 116.588 320.99 118.315 321.818C118.385 321.726 118.46 321.644 118.539 321.559Z" fill="#DCDFE4"/>
<defs>
<linearGradient id="paint0_linear_35_26" x1="655.163" y1="78.532" x2="483.772" y2="254.77" gradientUnits="userSpaceOnUse">
<stop stop-color="white"/>
<stop offset="1" stop-color="white" stop-opacity="0"/>
</linearGradient>
<linearGradient id="paint1_linear_35_26" x1="203.566" y1="342.527" x2="107.8" y2="441.002" gradientUnits="userSpaceOnUse">
<stop stop-color="white"/>
<stop offset="1" stop-color="white" stop-opacity="0"/>
</linearGradient>
</defs>
</svg>
