<svg width="74" height="48" viewBox="0 0 74 48" fill="none" xmlns="http://www.w3.org/2000/svg">
<path d="M68.5 47.625H60.625V45C62.0766 45 63.25 43.824 63.25 42.375C63.25 40.9234 62.0766 39.75 60.625 39.75H55.375C53.9234 39.75 52.75 40.9234 52.75 42.375C52.75 43.824 53.9234 45 55.375 45V47.625H21.25V45C22.7016 45 23.875 43.824 23.875 42.375C23.875 40.9234 22.7016 39.75 21.25 39.75H16C14.5484 39.75 13.375 40.9234 13.375 42.375C13.375 43.824 14.5484 45 16 45V47.625H5.5C2.602 47.625 0.25 45.273 0.25 42.375V5.625C0.25 2.727 2.602 0.375 5.5 0.375H68.5C71.398 0.375 73.75 2.727 73.75 5.625V42.375C73.75 45.273 71.398 47.625 68.5 47.625ZM21.25 7.7565C18.079 7.7565 15.5065 11.1349 15.5065 15.3034C15.5065 19.4719 18.079 22.8502 21.25 22.8502C24.421 22.8502 26.9935 19.4719 26.9935 15.3034C26.9935 11.1349 24.421 7.7565 21.25 7.7565ZM30.4112 25.806C28.9964 24.8636 24.9224 24.2362 24.9224 24.2362C24.9224 24.2362 22.2816 27.0581 21.1607 27.0581C20.0372 27.0581 17.3965 24.2362 17.3965 24.2362C17.3965 24.2362 13.3225 24.861 11.9102 25.806C10.4954 26.7457 9.87062 31.7411 9.87062 31.7411H32.485C32.4876 31.7385 32.0729 26.9111 30.4112 25.806ZM63.25 10.875H39.625V13.5H63.25V10.875ZM63.25 16.125H39.625V18.75H63.25V16.125ZM63.25 21.375H39.625V24H63.25V21.375ZM63.25 26.625H39.625V29.25H63.25V26.625Z" fill="white"/>
</svg>
