<svg width="700" height="484" viewBox="0 0 700 484" fill="none" xmlns="http://www.w3.org/2000/svg">
<path d="M-13.5466 326.133C-10.9733 344.746 -9.80948 362.064 -6.21998 379.256C3.00781 421.882 15.6939 463.918 39.7545 501.811C57.0461 529.243 71.8626 533.679 92.1532 513.476C106.822 499.174 120.049 481.662 131.013 463.719C147.043 437.716 160.072 408.72 175.921 382.316C190.246 358.043 206.324 334.911 222.763 312.581C229.549 303.747 238.448 296.857 247.889 291.171C271.916 276.523 296.96 280.705 319.546 303.349C329.953 313.622 338.673 326.581 348.917 337.41C357.751 346.943 366.585 356.476 376.599 364.033C388.548 373.131 394.071 371.615 398.873 358.369C404.823 341.232 409.723 323.602 413.23 305.633C417.197 284.083 418.196 261.455 422.687 240.152C426.866 220.917 432.603 201.465 441.863 185.252C458.351 155.668 487.427 152.253 515.06 176.005C528.615 187.757 540.317 202.752 553.544 215.617C562.362 224.193 570.852 233.88 580.85 240.48C599.272 252.939 614.285 248.608 624.726 230.418C649.999 187.245 641.885 118.565 606.483 76.6045C588.077 54.9767 554.477 47.4048 533.531 59.7049C523.058 65.8549 517.666 85.1522 521.927 101.078C526.008 116.603 522.779 120.464 508.832 116.121C487.558 109.282 474.445 92.9908 468.332 70.1818C454.089 18.2368 480.345 -28.2707 527.63 -31.6667C580.635 -35.2207 624.085 -9.41093 657.209 41.2868C677.516 72.6684 690.416 106.895 696.415 143.256C704.938 195.359 692.858 239.357 662.767 274.568C635.904 305.919 594.749 312.83 556.052 291.154C541.695 283.137 528.304 270.829 514.766 260.033C507.554 254.111 501.195 247.324 493.082 239.395C491.099 245.108 489.083 248.906 488.296 253.599C484.805 272.524 482.363 291.943 477.823 310.376C471.497 335.878 466.4 362.276 455.861 384.849C433.801 433.329 394.612 443.696 347.639 414.648C329.233 403.145 312.826 386.887 296.436 371.587C288.504 364.06 283.816 363.754 278.932 372.216C268.131 389.603 256.445 405.941 246.169 423.574C226.599 455.507 208.439 488.735 188.346 520.421C170.448 548.709 147.961 572.309 120.508 589.46C77.4356 616.036 30.4293 605.324 -6.92359 560.865C-39.8512 521.651 -57.3068 474.524 -69.4192 425.479C-80.0402 382.515 -84.7607 339.794 -71.5835 299.16C-68.1253 288.446 -63.274 278.071 -57.1934 268.589C-48.9165 255.711 -36.706 249.745 -21.0044 255.23C-5.64705 260.869 1.6957 274.447 4.40014 290.59C5.36719 296.424 5.99004 302.412 5.56393 307.908C5.23621 319.144 2.26965 328.191 -13.5466 326.133Z" fill="#B5C2EF" fill-opacity="0.08"/>
</svg>
