<svg width="17" height="16" viewBox="0 0 17 16" xmlns="http://www.w3.org/2000/svg">
<path d="M8.67671 -0.000976562C9.1197 -0.000976562 9.44028 0.00492314 9.63846 0.0167226C9.83664 0.0167226 10.0523 0.0580205 10.2855 0.140616C10.5186 0.223212 10.6702 0.329407 10.7401 0.4592C10.81 0.577195 10.8858 0.783684 10.9674 1.07867C11.049 1.37365 11.0957 1.70404 11.1073 2.06982C11.119 2.4238 11.1248 2.91938 11.1248 3.55655C11.1248 3.81613 11.119 4.09342 11.1073 4.3884C11.1073 4.67159 11.0957 4.86628 11.0723 4.97247C11.0607 5.07867 11.0723 5.20256 11.1073 5.34416C11.1423 5.47395 11.1714 5.54475 11.1947 5.55655C11.2181 5.56835 11.2997 5.59194 11.4396 5.62734C11.5794 5.66274 11.7077 5.66864 11.8243 5.64504C11.9525 5.62144 12.1682 5.60964 12.4712 5.60964C12.7743 5.59784 13.0658 5.59194 13.3456 5.59194C13.7069 5.59194 14.01 5.59194 14.2549 5.59194C14.4997 5.59194 14.7386 5.60964 14.9718 5.64504C15.2049 5.66864 15.3915 5.68634 15.5314 5.69814C15.6712 5.70994 15.8053 5.75124 15.9335 5.82203C16.0734 5.88103 16.1784 5.92823 16.2483 5.96362C16.3182 5.99902 16.3824 6.08162 16.4406 6.21141C16.5106 6.32941 16.5572 6.4238 16.5805 6.4946C16.6039 6.5654 16.6213 6.70109 16.633 6.90168C16.6563 7.10227 16.668 7.26746 16.668 7.39725C16.668 7.51525 16.668 7.70994 16.668 7.98132C16.668 8.32351 16.668 8.57129 16.668 8.72469C16.668 8.87808 16.6505 9.06687 16.6155 9.29106C16.5805 9.50345 16.5397 9.65094 16.4931 9.73354C16.4465 9.80433 16.3649 9.89873 16.2483 10.0167C16.1317 10.1347 16.0035 10.2055 15.8636 10.2291C15.7237 10.2527 15.5197 10.2881 15.2516 10.3353C14.9951 10.3707 14.727 10.3943 14.4472 10.4061C14.1674 10.4061 13.8002 10.4061 13.3456 10.4061C13.0658 10.4061 12.7685 10.4061 12.4538 10.4061C12.139 10.3943 11.9233 10.3825 11.8068 10.3707C11.6902 10.3471 11.562 10.353 11.4221 10.3884C11.2822 10.412 11.2006 10.4356 11.1773 10.4592C11.1539 10.471 11.1248 10.5477 11.0898 10.6893C11.0549 10.8191 11.049 10.943 11.0723 11.061C11.0957 11.1672 11.1073 11.3678 11.1073 11.6627C11.119 11.9577 11.1248 12.2409 11.1248 12.5123C11.1248 12.9843 11.119 13.3737 11.1073 13.6804C11.1073 13.9754 11.084 14.2586 11.0374 14.53C11.0024 14.8014 10.9674 15.0079 10.9325 15.1495C10.9091 15.2911 10.8392 15.4268 10.7226 15.5565C10.606 15.6863 10.5069 15.7748 10.4253 15.822C10.3554 15.8692 10.2097 15.9105 9.98819 15.9459C9.76669 15.9813 9.58017 15.999 9.42863 15.999C9.27708 15.999 9.02644 15.999 8.67671 15.999C8.21041 15.999 7.884 15.999 7.69748 15.999C7.51096 15.9872 7.29529 15.94 7.05048 15.8574C6.80567 15.7748 6.6483 15.6804 6.57835 15.5742C6.52006 15.4563 6.44429 15.2498 6.35103 14.9548C6.26943 14.6598 6.2228 14.3412 6.21114 13.999C6.21114 13.645 6.21114 13.1495 6.21114 12.5123C6.21114 12.2409 6.21114 11.9577 6.21114 11.6627C6.2228 11.3678 6.23445 11.1672 6.24611 11.061C6.26943 10.943 6.2636 10.8191 6.22862 10.6893C6.20531 10.5477 6.18199 10.471 6.15868 10.4592C6.14702 10.4356 6.07125 10.412 5.93136 10.3884C5.80312 10.353 5.68072 10.3471 5.56414 10.3707C5.45923 10.3825 5.26105 10.3943 4.96961 10.4061C4.67817 10.4061 4.39839 10.4061 4.13026 10.4061C3.50076 10.4061 3.01114 10.4002 2.66141 10.3884C2.32334 10.3766 2.00859 10.3353 1.71715 10.2645C1.42571 10.1819 1.2217 10.1052 1.10513 10.0344C0.988552 9.96363 0.889462 9.81023 0.807859 9.57424C0.726257 9.33826 0.679626 9.12587 0.667969 8.93708C0.667969 8.74829 0.667969 8.4297 0.667969 7.98132C0.667969 7.63914 0.667969 7.39725 0.667969 7.25566C0.667969 7.10227 0.685455 6.91938 0.720428 6.70699C0.7554 6.4828 0.796202 6.33531 0.842832 6.26451C0.90112 6.18191 0.988552 6.08752 1.10513 5.98132C1.23336 5.86333 1.36742 5.79253 1.50731 5.76893C1.65886 5.74534 1.8687 5.71584 2.13682 5.68044C2.40495 5.63324 2.68473 5.60964 2.97617 5.60964C3.27926 5.59784 3.66396 5.59194 4.13026 5.59194C4.39839 5.59194 4.67817 5.59784 4.96961 5.60964C5.27271 5.60964 5.47671 5.62144 5.58163 5.64504C5.69821 5.65684 5.82061 5.65094 5.94884 5.62734C6.07708 5.59194 6.14702 5.56835 6.15868 5.55655C6.18199 5.53295 6.21114 5.45625 6.24611 5.32646C6.28108 5.19666 6.28691 5.07867 6.2636 4.97247C6.24028 4.85448 6.2228 4.65389 6.21114 4.3707C6.21114 4.08752 6.21114 3.81613 6.21114 3.55655C6.21114 3.08457 6.21114 2.70109 6.21114 2.4061C6.2228 2.09932 6.24611 1.80433 6.28108 1.52115C6.32771 1.23796 6.36269 1.02557 6.386 0.883979C6.42097 0.730587 6.49092 0.588994 6.59584 0.4592C6.71241 0.329407 6.8115 0.240911 6.89311 0.193714C6.97471 0.146516 7.12626 0.105218 7.34775 0.0698199C7.56924 0.0226223 7.75576 -0.000976562 7.90731 -0.000976562C8.07052 -0.000976562 8.32699 -0.000976562 8.67671 -0.000976562Z" fill="#895ECC"/>
</svg>
