<svg width="66" height="66" viewBox="0 0 66 66" fill="none" xmlns="http://www.w3.org/2000/svg">
<path d="M33.0001 15.2424C37.2086 15.2424 40.6218 11.8302 40.6218 7.62171C40.6218 3.41318 37.2087 0 33.0001 0C28.7914 0 25.3794 3.41305 25.3794 7.62171C25.3794 11.8304 28.7915 15.2424 33.0001 15.2424Z" fill="white"/>
<path d="M33.0001 29.417C38.2354 29.417 43.5969 27.6041 42.7603 22.5852C42.4196 20.5469 40.7341 17.6897 39.4538 16.4104C39.2881 16.2457 38.5376 16.2026 38.3336 16.329C36.7801 17.2873 34.956 17.8459 33 17.8459C31.045 17.8459 29.221 17.2873 27.6675 16.329C27.4635 16.2026 26.7129 16.2457 26.5472 16.4104C25.2679 17.6897 23.5806 20.5469 23.2408 22.5852C22.4043 27.6043 27.7659 29.417 33.0001 29.417Z" fill="white"/>
<path d="M12.3344 51.8261C16.543 51.8261 19.9561 48.414 19.9561 44.2055C19.9561 39.9959 16.5431 36.5837 12.3344 36.5837C8.12577 36.5837 4.71362 39.9959 4.71362 44.2055C4.71375 48.414 8.1259 51.8261 12.3344 51.8261Z" fill="white"/>
<path d="M18.7881 52.9952C18.6224 52.8285 17.872 52.7874 17.6679 52.9128C16.1134 53.8711 14.2904 54.429 12.3344 54.429C10.3785 54.429 8.55538 53.8712 7.0018 52.9128C6.79775 52.7875 6.04622 52.8285 5.88071 52.9952C4.60131 54.2735 2.91496 57.1307 2.57529 59.169C1.73856 64.1881 7.10016 66 12.3344 66C17.5697 66 22.9313 64.1881 22.0944 59.169C21.754 57.1307 20.0675 54.2735 18.7881 52.9952Z" fill="white"/>
<path d="M53.6654 51.8261C57.8739 51.8261 61.2861 48.414 61.2861 44.2055C61.2861 39.9959 57.8739 36.5837 53.6654 36.5837C49.4569 36.5837 46.0437 39.9959 46.0437 44.2055C46.0438 48.414 49.4569 51.8261 53.6654 51.8261Z" fill="white"/>
<path d="M63.4247 59.169C63.0849 57.1307 61.3986 54.2735 60.1193 52.9952C59.9535 52.8285 59.2021 52.7874 58.9981 52.9128C57.4445 53.8711 55.6215 54.429 53.6655 54.429C51.7096 54.429 49.8864 53.8712 48.332 52.9128C48.1279 52.7875 47.3774 52.8285 47.2118 52.9952C45.9325 54.2735 44.2465 57.1307 43.9058 59.169C43.0692 64.1881 48.4302 66 53.6655 66C58.8998 66 64.2613 64.1881 63.4247 59.169Z" fill="white"/>
<path d="M43.3434 47.8207L34.257 42.5753V32.0842C34.257 31.3898 33.6946 30.8274 33.0002 30.8274C32.3067 30.8274 31.7443 31.3898 31.7443 32.0842V42.5753L22.6579 47.8207C22.0572 48.1679 21.8503 48.9373 22.1975 49.538C22.5448 50.139 23.3139 50.3447 23.9148 49.9985L33.0001 44.752L42.0864 49.9974C42.6873 50.3447 43.4557 50.1388 43.8028 49.5379C44.1501 48.9373 43.9441 48.1679 43.3434 47.8207Z" fill="white"/>
</svg>
