<svg width="23rem" height="32rem" viewBox="0 0 23 32" xmlns="http://www.w3.org/2000/svg">
<path d="M5.85605 0.822049C7.03558 1.58501 8.40424 2.19642 9.45141 3.11721C10.4923 4.0948 11.3945 5.28702 12.1202 6.5172C15.2184 11.747 18.2599 16.9706 21.2384 22.2446C22.3931 24.2697 23.0624 26.5285 22.8489 28.9771C22.6857 30.9713 22.0615 31.4197 20.1506 31.0357C17.5711 30.4628 15.4959 28.9683 13.8807 26.9498C11.2878 23.9031 8.75786 20.806 6.41079 17.6141C4.56216 15.1097 2.77657 12.5549 1.17383 9.90531C0.498644 8.73821 0.037735 7.19238 0.0183132 5.81038C0.0550842 2.88228 2.7534 0.823657 5.85605 0.822049Z" />
</svg>
