<svg width="44" height="44" viewBox="0 0 44 44" fill="none" xmlns="http://www.w3.org/2000/svg">
<path d="M40.4885 15.5424H33.3231C31.7308 15.5424 30.4923 16.7808 30.4923 18.3731V18.4616V20.1424H23.8577V6.16544C23.8577 5.72313 23.4154 5.28083 22.9731 5.28083H13.6846V3.60006C13.6846 2.00775 12.4462 0.769287 10.8538 0.769287H3.68846C2.18462 0.769287 0.857693 2.00775 0.857693 3.60006V10.7654C0.857693 12.3577 2.09615 13.5962 3.68846 13.5962H10.8538C12.4462 13.5962 13.6846 12.3577 13.6846 10.7654V9.08467H20.2308V20.1424H13.6846V18.4616C13.6846 16.8693 12.4462 15.6308 10.8538 15.6308H3.68846C2.09615 15.6308 0.857693 16.8693 0.857693 18.4616V25.5385C0.857693 27.1308 2.09615 28.3693 3.68846 28.3693H10.8538C12.4462 28.3693 13.6846 27.1308 13.6846 25.5385V23.8577H20.2308V34.9154H13.6846V33.3231C13.6846 31.7308 12.4462 30.4924 10.8538 30.4924H3.68846C2.09615 30.4924 0.857693 31.7308 0.857693 33.3231V40.4885C0.857693 42.0808 2.09615 43.3193 3.68846 43.3193H10.8538C12.4462 43.3193 13.6846 42.0808 13.6846 40.4885V38.8077H23.0615C23.5923 38.8077 23.9462 38.277 23.9462 37.9231V23.9462H30.5808V25.5385C30.5808 27.1308 31.8192 28.3693 33.4115 28.3693H40.5769C42.1692 28.3693 43.4077 27.1308 43.4077 25.5385V25.4501V18.4616V18.3731C43.3192 16.7808 42.0808 15.5424 40.4885 15.5424ZM10.0577 9.96929H4.48462V4.30775H10.0577V9.96929ZM10.0577 19.1693V24.7424H4.48462V19.1693H10.0577ZM10.0577 39.6924H4.48462V34.1193H10.0577V39.6924ZM39.7808 19.1693V24.7424H34.2077V19.1693H39.7808Z" fill="#002DC9"/>
</svg>
