<svg width="44" height="49" viewBox="0 0 44 49" fill="none" xmlns="http://www.w3.org/2000/svg">
<path d="M23.305 21.7858L22 22.4383L20.695 21.7858L1.36167 12.1192L20.695 1.24418C21.0624 1.03208 21.4791 0.92041 21.9033 0.92041C22.3275 0.92041 22.7443 1.03208 23.1117 1.24418L42.445 12.1192L32.7783 16.9525C32.7178 16.8883 32.6434 16.8387 32.5608 16.8075L22.8942 11.9742C22.3309 11.7396 21.6997 11.7268 21.1273 11.9384C20.555 12.1499 20.0838 12.5701 19.8085 13.1147C19.5331 13.6592 19.474 14.2878 19.6429 14.8741C19.8118 15.4605 20.1963 15.9612 20.7192 16.2758L27.4133 19.635L23.305 21.7858ZM0.25 14.27V36.02C0.250738 36.4482 0.365248 36.8686 0.581809 37.238C0.798371 37.6074 1.10921 37.9127 1.4825 38.1225L20.8158 48.9733V24.8067L19.6075 24.2025L0.25 14.27ZM43.75 14.27L34.0833 19.1033V29.8333C34.0833 30.4743 33.8287 31.089 33.3755 31.5422C32.9223 31.9954 32.3076 32.25 31.6667 32.25C31.0257 32.25 30.411 31.9954 29.9578 31.5422C29.5046 31.089 29.25 30.4743 29.25 29.8333V21.52L23.2083 24.5408V48.7075L42.5417 37.8567C42.8932 37.6543 43.1881 37.3667 43.3993 37.0204C43.6105 36.6741 43.7311 36.2802 43.75 35.875V14.125C43.7627 14.1471 43.7694 14.1721 43.7694 14.1975C43.7694 14.223 43.7627 14.248 43.75 14.27Z" fill="#002DC9"/>
</svg>
