<svg width="44" height="44" viewBox="0 0 44 44" fill="none" xmlns="http://www.w3.org/2000/svg">
<g clip-path="url(#clip0_1_2997)">
<path d="M22.0004 10.0418C24.7727 10.0418 27.0213 7.79402 27.0213 5.02159C27.0213 2.24924 24.7728 0 22.0004 0C19.2272 0 16.9795 2.24924 16.9795 5.02159C16.9795 7.79402 19.2272 10.0418 22.0004 10.0418Z" fill="#002DC9"/>
<path d="M26.252 10.8116C26.1428 10.703 25.6478 10.6749 25.5138 10.7581C24.49 11.3884 23.2885 11.7572 22.0003 11.7572C20.7121 11.7572 19.5107 11.3884 18.4869 10.7581C18.3529 10.6749 17.858 10.7031 17.7487 10.8116C16.9061 11.6543 15.7948 13.5361 15.5707 14.8792C15.0193 18.1854 18.5518 19.3798 22.0003 19.3798C25.4488 19.3798 28.9806 18.1854 28.4299 14.8792C28.2058 13.5361 27.0945 11.6543 26.252 10.8116Z" fill="#002DC9"/>
<path d="M6.61754 34.6619C9.39057 34.6619 11.6384 32.4141 11.6384 29.641C11.6384 26.868 9.39066 24.6201 6.61754 24.6201C3.84511 24.6201 1.59741 26.8679 1.59741 29.641C1.59741 32.4141 3.84519 34.6619 6.61754 34.6619Z" fill="#002DC9"/>
<path d="M10.8692 35.4319C10.7599 35.3227 10.265 35.2944 10.131 35.3776C9.10716 36.0088 7.90575 36.3767 6.61755 36.3767C5.32934 36.3767 4.12794 36.0088 3.10485 35.3776C2.9701 35.2944 2.47519 35.3227 2.36587 35.4319C1.52334 36.2739 0.41217 38.1564 0.187873 39.4989C-0.362728 42.8056 3.16905 44.0001 6.61755 44.0001C10.0667 44.0001 13.5986 42.8056 13.0472 39.4989C12.823 38.1564 11.7124 36.2738 10.8692 35.4319Z" fill="#002DC9"/>
<path d="M32.3615 29.641C32.3615 32.4141 34.6093 34.6619 37.3824 34.6619C40.1548 34.6619 42.4026 32.4141 42.4026 29.641C42.4026 26.868 40.1548 24.6201 37.3824 24.6201C34.6094 24.6201 32.3615 26.868 32.3615 29.641Z" fill="#002DC9"/>
<path d="M43.8122 39.4987C43.588 38.1562 42.4767 36.2736 41.6335 35.4317C41.5249 35.3225 41.0299 35.2942 40.8953 35.3774C39.8722 36.0085 38.6707 36.3765 37.3825 36.3765C36.0936 36.3765 34.8929 36.0085 33.869 35.3774C33.7344 35.2942 33.2394 35.3225 33.1308 35.4317C32.2875 36.2736 31.177 38.1562 30.9528 39.4987C30.4015 42.8055 33.9332 43.9999 37.3825 43.9999C40.831 43.9999 44.3628 42.8055 43.8122 39.4987Z" fill="#002DC9"/>
<path d="M9.70933 19.7387L8.1469 19.3869C8.48249 18.3011 9.02965 17.2822 9.76571 16.3966C10.1479 15.9362 10.5815 15.5117 11.0646 15.1324C11.5341 14.7629 12.0453 14.4358 12.6002 14.1636L11.9628 12.8677C11.3134 13.1871 10.7163 13.5693 10.1718 13.9972C9.60853 14.44 9.1015 14.9364 8.65454 15.4736C7.77101 16.5369 7.12519 17.7637 6.73744 19.0695L4.94934 18.6677L6.73461 22.5949L9.70933 19.7387Z" fill="#002DC9"/>
<path d="M24.0796 40.5572C23.4387 40.7046 22.7809 40.7806 22.1209 40.7806C21.6324 40.7806 21.1423 40.739 20.6551 40.6566C20.0657 40.555 19.4811 40.3922 18.9114 40.1637C18.3573 39.9431 17.8186 39.6624 17.3039 39.3184L16.5014 40.5198C17.1022 40.921 17.7312 41.2474 18.3748 41.5041C19.0397 41.7706 19.7229 41.9617 20.4118 42.0795C20.9793 42.1768 21.5512 42.2247 22.1209 42.2247C22.9275 42.2247 23.7285 42.1239 24.5091 41.9357L25.028 43.5996L27.5366 40.0905L23.5762 38.9419L24.0796 40.5572Z" fill="#002DC9"/>
<path d="M34.0461 16.1746C34.8561 17.0263 35.4963 18.0374 35.9088 19.1542C36.1168 19.7148 36.2677 20.3036 36.3544 20.9105C36.4136 21.3202 36.444 21.7362 36.444 22.1593C36.444 22.3461 36.4383 22.5351 36.4256 22.7262L37.8668 22.8193C37.8809 22.5978 37.8879 22.3779 37.8879 22.1593C37.8879 21.6657 37.852 21.1806 37.7843 20.7054C37.6821 19.9961 37.5057 19.3079 37.2632 18.6536C36.7711 17.3195 36.0004 16.1195 35.0253 15.1127L36.2535 13.7814L31.9603 13.364L32.9453 17.3682L34.0461 16.1746Z" fill="#002DC9"/>
</g>
<defs>
<clipPath id="clip0_1_2997">
<rect width="44" height="44" fill="white"/>
</clipPath>
</defs>
</svg>
