<svg width="100%" height="100%" viewBox="0 0 116 116" fill="none" xmlns="http://www.w3.org/2000/svg">
    <g filter="url(#filter0_d_1_3163)">
        <path
            d="M91.1332 81.2104C88.8072 81.9062 86.5239 83.1145 84.2265 85.4008L84.2235 85.4036C81.233 88.4168 80.0572 91.4101 79.5375 94.5002C79.0263 97.5886 79.279 100.751 79.333 103.777C79.3386 104.282 79.3416 104.788 79.3303 105.289L104.115 80.502C103.328 80.5206 102.536 80.5091 101.735 80.4892C98.2502 80.3853 94.6122 80.1723 91.1332 81.2104Z"
            fill="white" />
        <path
            d="M54.283 60.3679L50.5498 61.2044C50.4476 61.227 50.4079 61.2896 50.4307 61.3933L51.4729 66.0523C51.497 66.1559 51.5596 66.1943 51.6618 66.1715L55.395 65.3365C56.9925 64.9801 57.8544 63.7603 57.5193 62.2665C57.1797 60.747 55.8804 60.0115 54.283 60.3679Z"
            fill="white" />
        <path
            d="M62.5013 16C36.2656 16 15 37.2641 15 63.4968C15 89.7325 36.2656 110.998 62.5013 110.998C66.4289 110.998 70.2317 110.49 73.8838 109.589C74.3525 109.071 74.6507 108.431 74.8438 107.397C75.0398 106.314 75.0568 104.87 75.0086 103.202C74.9292 99.8656 74.5996 95.6368 75.9174 91.1553C76.795 88.1706 78.4479 85.1033 81.2793 82.2819C81.2793 82.2819 81.2793 82.2804 81.2823 82.2789C84.9828 78.5558 89.1149 76.8987 92.9175 76.2895C96.726 75.6718 100.233 75.9899 103.019 76.0238C104.874 76.0607 106.385 75.9472 107.365 75.5965C107.881 75.4132 108.253 75.1833 108.591 74.8751C109.492 71.2273 110 67.423 110 63.4968C110 37.2641 88.734 16 62.5013 16ZM44.3836 70.6962L37.6131 72.2099C37.5108 72.2325 37.4711 72.2951 37.4952 72.4003L39.0331 79.2729C39.067 79.4263 38.9848 79.5542 38.8314 79.5881L36.3081 80.1533C36.1547 80.1873 36.0268 80.1066 35.9929 79.9531L32.1901 62.9615C32.1562 62.8068 32.2384 62.6804 32.3918 62.6463L43.3583 60.1926C43.5131 60.1585 43.6396 60.2381 43.675 60.3928L44.1692 62.6066C44.2046 62.7613 44.1239 62.8864 43.9689 62.9218L35.9376 64.7183C35.8353 64.7409 35.7955 64.8048 35.8183 64.9085L36.815 69.3616C36.8377 69.4638 36.9002 69.5037 37.0024 69.4807L43.773 67.967C43.9278 67.9316 44.0556 68.0127 44.0896 68.1659L44.5851 70.3797C44.6195 70.5344 44.5384 70.6608 44.3836 70.6962ZM63.8033 74.0004L60.9462 74.6409C60.7403 74.6862 60.6197 74.6324 60.5032 74.4691L55.6298 68.3958L52.6165 69.069C52.5143 69.0918 52.4744 69.1556 52.4972 69.2593L53.9896 75.9262C54.0237 76.081 53.9428 76.2073 53.7893 76.2414L51.2661 76.8064C51.1112 76.8406 50.9848 76.7597 50.9509 76.6062L47.1481 59.6148C47.114 59.4614 47.195 59.3336 47.3498 59.2996L54.1204 57.7859C57.3381 57.0645 60.1851 58.6719 60.8752 61.7605C61.3878 64.0522 60.4718 66.1227 58.6315 67.3196L63.9096 73.6258C64.0517 73.7831 63.9836 73.9607 63.8033 74.0004ZM78.1679 70.7871L67.2014 73.2408C67.0481 73.2749 66.9216 73.1953 66.8876 73.0406L63.0863 56.049C63.0509 55.8943 63.1318 55.7694 63.2852 55.7353L74.2518 53.2816C74.4065 53.2462 74.5329 53.3271 74.5683 53.4803L75.0624 55.6956C75.098 55.8488 75.0169 55.9739 74.8622 56.0093L66.8306 57.8054C66.7284 57.8295 66.6887 57.892 66.7113 57.9958L67.6684 62.2685C67.691 62.3722 67.7536 62.412 67.8558 62.3891L74.6264 60.874C74.7811 60.84 74.9075 60.9194 74.9429 61.0742L75.437 63.2879C75.4726 63.4427 75.3916 63.569 75.2368 63.6032L68.4662 65.1181C68.364 65.141 68.3243 65.2035 68.3469 65.307L69.3381 69.7345C69.3608 69.8369 69.4233 69.8781 69.5255 69.8553L77.5569 68.0576C77.7116 68.0234 77.8395 68.103 77.8736 68.2578L78.3692 70.4715C78.4035 70.6253 78.3226 70.753 78.1679 70.7871ZM92.8433 67.5041L81.8768 69.9577C81.722 69.9919 81.5957 69.9123 81.5615 69.7575L77.7602 52.766C77.7248 52.6112 77.8057 52.4862 77.9604 52.4507L88.927 49.9985C89.0817 49.9631 89.2068 50.0425 89.2422 50.1973L89.7363 52.411C89.7718 52.5658 89.6922 52.6908 89.5376 52.7263L81.506 54.5223C81.4025 54.5452 81.3626 54.609 81.3854 54.7127L82.3425 58.9855C82.3651 59.0892 82.4277 59.1289 82.5314 59.1061L89.302 57.5909C89.4567 57.5555 89.5818 57.6364 89.6172 57.7911L90.1113 60.0036C90.1467 60.1598 90.0671 60.2847 89.9124 60.3201L83.142 61.8353C83.0383 61.8581 82.9986 61.9206 83.0214 62.0227L84.0126 66.4502C84.0352 66.5537 84.0979 66.5951 84.2015 66.5708L92.2328 64.7745C92.3876 64.7404 92.5141 64.82 92.5481 64.9747L93.0437 67.1885C93.0778 67.3421 92.9982 67.4699 92.8433 67.5041Z"
            fill="white" />
    </g>
    <defs>
        <filter id="filter0_d_1_3163" x="0" y="0" width="119" height="118.998"
            filterUnits="userSpaceOnUse" color-interpolation-filters="sRGB">
            <feFlood flood-opacity="0" result="BackgroundImageFix" />
            <feColorMatrix in="SourceAlpha" type="matrix"
                values="0 0 0 0 0 0 0 0 0 0 0 0 0 0 0 0 0 0 127 0" result="hardAlpha" />
            <feOffset dx="-3" dy="-4" />
            <feGaussianBlur stdDeviation="6" />
            <feComposite in2="hardAlpha" operator="out" />
            <feColorMatrix type="matrix" values="0 0 0 0 0 0 0 0 0 0 0 0 0 0 0 0 0 0 0.25 0" />
            <feBlend mode="normal" in2="BackgroundImageFix" result="effect1_dropShadow_1_3163" />
            <feBlend mode="normal" in="SourceGraphic" in2="effect1_dropShadow_1_3163" result="shape" />
        </filter>
    </defs>
</svg>