<svg width="96%" height="120%" viewBox="0 0 116 120" fill="none" xmlns="http://www.w3.org/2000/svg">
    <g filter="url(#filter0_d_1_3168)">
        <path
            d="M87.4263 66.5755C86.654 65.1602 85.1515 64.4443 83.5796 64.7042L81.203 65.0972L74.0631 21.9172C73.3362 17.5211 69.2817 14.6072 64.8998 15.3317L22.6081 22.3247C17.956 23.0939 14.6562 27.7169 15.428 32.3841L26.7896 101.097C27.5285 105.565 32.2537 108.679 36.67 107.949L79.4157 100.881C79.8675 100.807 80.3264 101.11 80.3675 101.568C80.4105 102.049 80.0485 102.32 79.5844 102.396L62.5554 105.212L76.8028 110.571L106.744 105.62L87.4263 66.5755ZM57.5069 100.724C56.3096 100.922 55.2624 100.169 55.0634 98.9682C54.874 97.8249 55.6726 96.7065 56.8122 96.5181C58.0096 96.3205 59.0564 97.0732 59.2551 98.2743C59.4163 99.4821 58.7045 100.526 57.5069 100.724ZM75.589 66.0255L68.2348 67.2415C66.2512 67.5695 64.8588 69.6127 65.1878 71.6028C65.5169 73.5928 67.4929 75.0791 69.4765 74.7511L76.8869 73.5258L79.4945 89.2959L32.2812 97.1026L21.7887 33.6468L68.9459 25.8493L75.589 66.0255ZM35.9713 56.6053L48.112 54.5979L46.4762 44.7048L34.3355 46.7122L35.9713 56.6053ZM38.0104 68.9372L50.1511 66.9297L48.5153 57.0366L36.3745 59.0441L38.0104 68.9372ZM50.5425 54.196L62.6832 52.1885L61.0474 42.2954L48.9067 44.3029L50.5425 54.196ZM52.5816 66.5278L64.7223 64.5203L63.0865 54.6272L50.9457 56.6347L52.5816 66.5278ZM47.9993 42.5709L51.1959 33.9687L56.1589 37.2238L47.9993 42.5709ZM37.3436 40.3349L40.995 35.6554L46.7777 42.7728L37.3436 40.3349Z"
            fill="white" />
    </g>
    <defs>
        <filter id="filter0_d_1_3168" x="0.315826" y="0.221191" width="115.428" height="119.35"
            filterUnits="userSpaceOnUse" color-interpolation-filters="sRGB">
            <feFlood flood-opacity="0" result="BackgroundImageFix" />
            <feColorMatrix in="SourceAlpha" type="matrix"
                values="0 0 0 0 0 0 0 0 0 0 0 0 0 0 0 0 0 0 127 0" result="hardAlpha" />
            <feOffset dx="-3" dy="-3" />
            <feGaussianBlur stdDeviation="6" />
            <feComposite in2="hardAlpha" operator="out" />
            <feColorMatrix type="matrix"
                values="0 0 0 0 0.304167 0 0 0 0 0.304167 0 0 0 0 0.304167 0 0 0 0.33 0" />
            <feBlend mode="normal" in2="BackgroundImageFix" result="effect1_dropShadow_1_3168" />
            <feBlend mode="normal" in="SourceGraphic" in2="effect1_dropShadow_1_3168" result="shape" />
        </filter>
    </defs>
</svg>