<svg width="22" height="22" viewBox="0 0 22 22" fill="none" xmlns="http://www.w3.org/2000/svg">
<g clip-path="url(#clip0_1_3176)">
<path d="M21.9936 0H0.00644531C0.00288566 0 0 0.00288566 0 0.00644531V21.9936C0 21.9971 0.00288566 22 0.00644531 22H21.9936C21.9971 22 22 21.9971 22 21.9936V0.00644531C22 0.00288566 21.9971 0 21.9936 0Z" fill="white"/>
<path d="M5.28493 16.8868L5.8865 14.0938C5.11331 12.8743 4.81169 11.4145 5.03822 9.98845C5.26475 8.56236 6.00387 7.26793 7.1169 6.34803C8.22992 5.42813 9.64037 4.94598 11.0836 4.99203C12.5268 5.03809 13.9037 5.60918 14.9558 6.59817C16.0079 7.58716 16.663 8.92607 16.7981 10.3637C16.9333 11.8013 16.5392 13.2389 15.6899 14.4066C14.8405 15.5744 13.5942 16.3921 12.1849 16.7063C10.7755 17.0205 9.2999 16.8097 8.03493 16.1133L5.28493 16.8868Z" fill="white" stroke="#002DC9" stroke-width="1.11719"/>
<path d="M13.2346 11.7305C13.1057 11.6445 12.9768 11.6016 12.8479 11.7734L12.3323 12.4609C12.2034 12.5469 12.1175 12.5899 11.9456 12.5039C11.301 12.1602 10.3987 11.7734 9.62527 10.4844C9.5823 10.3125 9.66823 10.2266 9.75417 10.1406L10.1409 9.53907C10.2268 9.45313 10.1839 9.3672 10.1409 9.28126L9.62527 8.03517C9.49636 7.69142 9.36745 7.73438 9.23855 7.73438H8.8948C8.80886 7.73438 8.63698 7.77735 8.46511 7.94923C7.5198 8.89454 7.90652 10.2266 8.59402 11.0859C8.72292 11.2578 9.5823 12.8047 11.43 13.6211C12.805 14.2227 13.1057 14.1367 13.4925 14.0508C13.9651 14.0078 14.4378 13.6211 14.6526 13.2344C14.6956 13.1055 14.9104 12.5469 14.7385 12.4609" fill="#002DC9"/>
</g>
<defs>
<clipPath id="clip0_1_3176">
<rect width="22" height="22" rx="7.76471" fill="white"/>
</clipPath>
</defs>
</svg>
