<svg width="291" height="150" viewBox="0 0 291 150" fill="none" xmlns="http://www.w3.org/2000/svg">
<g clip-path="url(#clip0_609_1635)">
<path d="M67.3864 100.883H65.5227L69.7102 89.2466H71.7386L75.9261 100.883H74.0625L70.7727 91.3603H70.6818L67.3864 100.883ZM67.6989 96.3262H73.7443V97.8035H67.6989V96.3262ZM80.5966 101.053C79.892 101.053 79.2633 100.874 78.7102 100.514C78.161 100.15 77.7292 99.633 77.4148 98.9625C77.1042 98.2883 76.9489 97.4796 76.9489 96.5364C76.9489 95.5932 77.1061 94.7864 77.4205 94.116C77.7386 93.4455 78.1742 92.9322 78.7273 92.5762C79.2803 92.2201 79.9072 92.0421 80.608 92.0421C81.1496 92.0421 81.5852 92.133 81.9148 92.3148C82.2481 92.4928 82.5057 92.7012 82.6875 92.9398C82.8731 93.1784 83.017 93.3887 83.1193 93.5705H83.2216V89.2466H84.9205V100.883H83.2614V99.525H83.1193C83.017 99.7106 82.8693 99.9228 82.6761 100.161C82.4867 100.4 82.2254 100.608 81.892 100.786C81.5587 100.964 81.1269 101.053 80.5966 101.053ZM80.9716 99.6046C81.4602 99.6046 81.8731 99.4758 82.2102 99.2182C82.5511 98.9569 82.8087 98.5951 82.983 98.133C83.161 97.6709 83.25 97.133 83.25 96.5194C83.25 95.9133 83.1629 95.383 82.9886 94.9285C82.8144 94.4739 82.5587 94.1197 82.2216 93.866C81.8845 93.6122 81.4678 93.4853 80.9716 93.4853C80.4602 93.4853 80.0341 93.6178 79.6932 93.883C79.3523 94.1481 79.0947 94.5099 78.9205 94.9682C78.75 95.4266 78.6648 95.9436 78.6648 96.5194C78.6648 97.1027 78.7519 97.6273 78.9261 98.0932C79.1004 98.5591 79.358 98.9285 79.6989 99.2012C80.0436 99.4701 80.4678 99.6046 80.9716 99.6046ZM90.6122 101.053C89.9077 101.053 89.2789 100.874 88.7259 100.514C88.1766 100.15 87.7448 99.633 87.4304 98.9625C87.1198 98.2883 86.9645 97.4796 86.9645 96.5364C86.9645 95.5932 87.1217 94.7864 87.4361 94.116C87.7543 93.4455 88.1899 92.9322 88.7429 92.5762C89.2959 92.2201 89.9228 92.0421 90.6236 92.0421C91.1652 92.0421 91.6009 92.133 91.9304 92.3148C92.2637 92.4928 92.5213 92.7012 92.7031 92.9398C92.8887 93.1784 93.0327 93.3887 93.1349 93.5705H93.2372V89.2466H94.9361V100.883H93.277V99.525H93.1349C93.0327 99.7106 92.8849 99.9228 92.6918 100.161C92.5024 100.4 92.241 100.608 91.9077 100.786C91.5743 100.964 91.1425 101.053 90.6122 101.053ZM90.9872 99.6046C91.4759 99.6046 91.8887 99.4758 92.2259 99.2182C92.5668 98.9569 92.8243 98.5951 92.9986 98.133C93.1766 97.6709 93.2656 97.133 93.2656 96.5194C93.2656 95.9133 93.1785 95.383 93.0043 94.9285C92.83 94.4739 92.5743 94.1197 92.2372 93.866C91.9001 93.6122 91.4834 93.4853 90.9872 93.4853C90.4759 93.4853 90.0497 93.6178 89.7088 93.883C89.3679 94.1481 89.1103 94.5099 88.9361 94.9682C88.7656 95.4266 88.6804 95.9436 88.6804 96.5194C88.6804 97.1027 88.7675 97.6273 88.9418 98.0932C89.116 98.5591 89.3736 98.9285 89.7145 99.2012C90.0592 99.4701 90.4834 99.6046 90.9872 99.6046ZM101.732 100.883V89.2466H105.879C106.785 89.2466 107.535 89.4114 108.129 89.7409C108.724 90.0705 109.169 90.5213 109.464 91.0932C109.76 91.6614 109.908 92.3016 109.908 93.0137C109.908 93.7296 109.758 94.3735 109.459 94.9455C109.163 95.5137 108.716 95.9644 108.118 96.2978C107.523 96.6273 106.775 96.7921 105.874 96.7921H103.021V95.3035H105.714C106.286 95.3035 106.75 95.205 107.107 95.008C107.463 94.8072 107.724 94.5345 107.891 94.1898C108.057 93.8451 108.141 93.4531 108.141 93.0137C108.141 92.5743 108.057 92.1841 107.891 91.8432C107.724 91.5023 107.461 91.2353 107.101 91.0421C106.745 90.8489 106.275 90.7523 105.692 90.7523H103.487V100.883H101.732ZM114.291 101.076C113.738 101.076 113.238 100.974 112.791 100.769C112.344 100.561 111.99 100.26 111.729 99.866C111.471 99.472 111.342 98.9891 111.342 98.4171C111.342 97.9247 111.437 97.5194 111.626 97.2012C111.816 96.883 112.071 96.6311 112.393 96.4455C112.715 96.2599 113.075 96.1197 113.473 96.025C113.871 95.9303 114.276 95.8584 114.689 95.8091C115.212 95.7485 115.636 95.6993 115.962 95.6614C116.287 95.6197 116.524 95.5535 116.672 95.4625C116.82 95.3716 116.893 95.2239 116.893 95.0194V94.9796C116.893 94.4834 116.753 94.0989 116.473 93.8262C116.196 93.5534 115.784 93.4171 115.234 93.4171C114.662 93.4171 114.212 93.544 113.882 93.7978C113.556 94.0478 113.331 94.3262 113.206 94.633L111.609 94.2694C111.799 93.7391 112.075 93.311 112.439 92.9853C112.806 92.6557 113.229 92.4171 113.706 92.2694C114.183 92.1178 114.685 92.0421 115.212 92.0421C115.56 92.0421 115.929 92.0838 116.32 92.1671C116.714 92.2466 117.081 92.3944 117.422 92.6103C117.767 92.8262 118.049 93.1349 118.268 93.5364C118.488 93.9341 118.598 94.4512 118.598 95.0875V100.883H116.939V99.6898H116.871C116.761 99.9095 116.596 100.125 116.376 100.338C116.157 100.55 115.875 100.726 115.53 100.866C115.185 101.006 114.772 101.076 114.291 101.076ZM114.661 99.7125C115.13 99.7125 115.532 99.6197 115.865 99.4341C116.202 99.2485 116.458 99.0061 116.632 98.7069C116.81 98.4038 116.899 98.08 116.899 97.7353V96.6103C116.839 96.6709 116.721 96.7277 116.547 96.7807C116.376 96.83 116.181 96.8735 115.962 96.9114C115.742 96.9455 115.528 96.9777 115.32 97.008C115.111 97.0345 114.937 97.0572 114.797 97.0762C114.467 97.1178 114.166 97.1879 113.893 97.2864C113.625 97.3849 113.409 97.5269 113.246 97.7125C113.087 97.8944 113.007 98.1368 113.007 98.4398C113.007 98.8603 113.162 99.1785 113.473 99.3944C113.784 99.6065 114.179 99.7125 114.661 99.7125ZM121.622 104.156C121.368 104.156 121.137 104.135 120.929 104.093C120.721 104.055 120.565 104.014 120.463 103.968L120.872 102.576C121.183 102.66 121.459 102.695 121.702 102.684C121.944 102.673 122.158 102.582 122.344 102.411C122.533 102.241 122.7 101.963 122.844 101.576L123.054 100.997L119.861 92.1557H121.679L123.889 98.9285H123.98L126.19 92.1557H128.014L124.418 102.048C124.251 102.502 124.039 102.887 123.781 103.201C123.524 103.519 123.217 103.758 122.861 103.917C122.505 104.076 122.092 104.156 121.622 104.156ZM129.611 100.883V92.1557H131.241V93.5762H131.349C131.531 93.0951 131.829 92.7201 132.241 92.4512C132.654 92.1785 133.149 92.0421 133.724 92.0421C134.308 92.0421 134.796 92.1785 135.19 92.4512C135.588 92.7239 135.882 93.0989 136.071 93.5762H136.162C136.37 93.1103 136.702 92.7391 137.156 92.4625C137.611 92.1822 138.152 92.0421 138.781 92.0421C139.573 92.0421 140.219 92.2902 140.719 92.7864C141.223 93.2826 141.474 94.0307 141.474 95.0307V100.883H139.776V95.1898C139.776 94.5989 139.615 94.1709 139.293 93.9057C138.971 93.6406 138.586 93.508 138.139 93.508C137.586 93.508 137.156 93.6785 136.849 94.0194C136.543 94.3565 136.389 94.7902 136.389 95.3205V100.883H134.696V95.0819C134.696 94.6084 134.548 94.2277 134.253 93.9398C133.957 93.6519 133.573 93.508 133.099 93.508C132.777 93.508 132.48 93.5932 132.207 93.7637C131.938 93.9303 131.721 94.1633 131.554 94.4625C131.391 94.7618 131.31 95.1084 131.31 95.5023V100.883H129.611ZM147.513 101.059C146.653 101.059 145.912 100.875 145.291 100.508C144.674 100.137 144.196 99.616 143.859 98.9455C143.526 98.2713 143.359 97.4815 143.359 96.5762C143.359 95.6822 143.526 94.8944 143.859 94.2125C144.196 93.5307 144.666 92.9985 145.268 92.6159C145.875 92.2334 146.583 92.0421 147.393 92.0421C147.886 92.0421 148.363 92.1235 148.825 92.2864C149.287 92.4493 149.702 92.705 150.07 93.0535C150.437 93.4019 150.727 93.8546 150.939 94.4114C151.151 94.9644 151.257 95.6368 151.257 96.4285V97.0307H144.32V95.758H149.592C149.592 95.311 149.501 94.9152 149.32 94.5705C149.138 94.222 148.882 93.9474 148.553 93.7466C148.227 93.5459 147.844 93.4455 147.405 93.4455C146.928 93.4455 146.511 93.5629 146.155 93.7978C145.803 94.0288 145.53 94.3319 145.337 94.7069C145.147 95.0781 145.053 95.4815 145.053 95.9171V96.9114C145.053 97.4947 145.155 97.991 145.359 98.4C145.568 98.8091 145.857 99.1216 146.229 99.3375C146.6 99.5497 147.034 99.6557 147.53 99.6557C147.852 99.6557 148.145 99.6103 148.411 99.5194C148.676 99.4247 148.905 99.2845 149.098 99.0989C149.291 98.9133 149.439 98.6841 149.541 98.4114L151.149 98.7012C151.02 99.1747 150.789 99.5894 150.456 99.9455C150.126 100.298 149.712 100.572 149.212 100.769C148.715 100.963 148.149 101.059 147.513 101.059ZM154.841 95.7012V100.883H153.142V92.1557H154.773V93.5762H154.881C155.081 93.1141 155.396 92.7428 155.824 92.4625C156.256 92.1822 156.799 92.0421 157.455 92.0421C158.049 92.0421 158.57 92.1671 159.017 92.4171C159.464 92.6633 159.811 93.0307 160.057 93.5194C160.303 94.008 160.426 94.6122 160.426 95.3319V100.883H158.727V95.5364C158.727 94.9038 158.563 94.4095 158.233 94.0535C157.903 93.6936 157.451 93.5137 156.875 93.5137C156.481 93.5137 156.131 93.5989 155.824 93.7694C155.521 93.9398 155.28 94.1898 155.102 94.5194C154.928 94.8451 154.841 95.2391 154.841 95.7012ZM166.778 92.1557V93.5194H162.011V92.1557H166.778ZM163.29 90.0648H164.989V98.3205C164.989 98.65 165.038 98.8981 165.136 99.0648C165.235 99.2277 165.362 99.3394 165.517 99.4C165.676 99.4569 165.848 99.4853 166.034 99.4853C166.17 99.4853 166.29 99.4758 166.392 99.4569C166.494 99.4379 166.574 99.4228 166.631 99.4114L166.938 100.815C166.839 100.853 166.699 100.891 166.517 100.928C166.335 100.97 166.108 100.993 165.835 100.997C165.388 101.004 164.972 100.925 164.585 100.758C164.199 100.591 163.886 100.334 163.648 99.9853C163.409 99.6368 163.29 99.1993 163.29 98.6728V90.0648ZM173.028 89.2466H175.159L178.864 98.2921H179L182.705 89.2466H184.835V100.883H183.165V92.4625H183.057L179.625 100.866H178.239L174.807 92.4569H174.699V100.883H173.028V89.2466ZM191.013 101.059C190.153 101.059 189.412 100.875 188.791 100.508C188.174 100.137 187.696 99.616 187.359 98.9455C187.026 98.2713 186.859 97.4815 186.859 96.5762C186.859 95.6822 187.026 94.8944 187.359 94.2125C187.696 93.5307 188.166 92.9985 188.768 92.6159C189.375 92.2334 190.083 92.0421 190.893 92.0421C191.386 92.0421 191.863 92.1235 192.325 92.2864C192.787 92.4493 193.202 92.705 193.57 93.0535C193.937 93.4019 194.227 93.8546 194.439 94.4114C194.651 94.9644 194.757 95.6368 194.757 96.4285V97.0307H187.82V95.758H193.092C193.092 95.311 193.001 94.9152 192.82 94.5705C192.638 94.222 192.382 93.9474 192.053 93.7466C191.727 93.5459 191.344 93.4455 190.905 93.4455C190.428 93.4455 190.011 93.5629 189.655 93.7978C189.303 94.0288 189.03 94.3319 188.837 94.7069C188.647 95.0781 188.553 95.4815 188.553 95.9171V96.9114C188.553 97.4947 188.655 97.991 188.859 98.4C189.068 98.8091 189.357 99.1216 189.729 99.3375C190.1 99.5497 190.534 99.6557 191.03 99.6557C191.352 99.6557 191.645 99.6103 191.911 99.5194C192.176 99.4247 192.405 99.2845 192.598 99.0989C192.791 98.9133 192.939 98.6841 193.041 98.4114L194.649 98.7012C194.52 99.1747 194.289 99.5894 193.956 99.9455C193.626 100.298 193.212 100.572 192.712 100.769C192.215 100.963 191.649 101.059 191.013 101.059ZM200.716 92.1557V93.5194H195.949V92.1557H200.716ZM197.227 90.0648H198.926V98.3205C198.926 98.65 198.975 98.8981 199.074 99.0648C199.172 99.2277 199.299 99.3394 199.455 99.4C199.614 99.4569 199.786 99.4853 199.972 99.4853C200.108 99.4853 200.227 99.4758 200.33 99.4569C200.432 99.4379 200.511 99.4228 200.568 99.4114L200.875 100.815C200.777 100.853 200.636 100.891 200.455 100.928C200.273 100.97 200.045 100.993 199.773 100.997C199.326 101.004 198.909 100.925 198.523 100.758C198.136 100.591 197.824 100.334 197.585 99.9853C197.347 99.6368 197.227 99.1993 197.227 98.6728V90.0648ZM204.482 95.7012V100.883H202.783V89.2466H204.459V93.5762H204.567C204.771 93.1065 205.084 92.7334 205.504 92.4569C205.925 92.1803 206.474 92.0421 207.152 92.0421C207.75 92.0421 208.273 92.1652 208.72 92.4114C209.171 92.6576 209.519 93.025 209.766 93.5137C210.016 93.9985 210.141 94.6046 210.141 95.3319V100.883H208.442V95.5364C208.442 94.8963 208.277 94.4 207.947 94.0478C207.618 93.6917 207.16 93.5137 206.572 93.5137C206.171 93.5137 205.811 93.5989 205.493 93.7694C205.179 93.9398 204.93 94.1898 204.749 94.5194C204.571 94.8451 204.482 95.2391 204.482 95.7012ZM216.084 101.059C215.266 101.059 214.552 100.872 213.942 100.497C213.332 100.122 212.858 99.597 212.521 98.9228C212.184 98.2485 212.016 97.4606 212.016 96.5591C212.016 95.6538 212.184 94.8622 212.521 94.1841C212.858 93.5061 213.332 92.9796 213.942 92.6046C214.552 92.2296 215.266 92.0421 216.084 92.0421C216.902 92.0421 217.616 92.2296 218.226 92.6046C218.836 92.9796 219.309 93.5061 219.646 94.1841C219.983 94.8622 220.152 95.6538 220.152 96.5591C220.152 97.4606 219.983 98.2485 219.646 98.9228C219.309 99.597 218.836 100.122 218.226 100.497C217.616 100.872 216.902 101.059 216.084 101.059ZM216.089 99.633C216.62 99.633 217.059 99.4928 217.408 99.2125C217.756 98.9322 218.014 98.5591 218.18 98.0932C218.351 97.6273 218.436 97.1141 218.436 96.5535C218.436 95.9966 218.351 95.4853 218.18 95.0194C218.014 94.5497 217.756 94.1728 217.408 93.8887C217.059 93.6046 216.62 93.4625 216.089 93.4625C215.555 93.4625 215.112 93.6046 214.76 93.8887C214.411 94.1728 214.152 94.5497 213.982 95.0194C213.815 95.4853 213.732 95.9966 213.732 96.5535C213.732 97.1141 213.815 97.6273 213.982 98.0932C214.152 98.5591 214.411 98.9322 214.76 99.2125C215.112 99.4928 215.555 99.633 216.089 99.633ZM225.315 101.053C224.611 101.053 223.982 100.874 223.429 100.514C222.88 100.15 222.448 99.633 222.134 98.9625C221.823 98.2883 221.668 97.4796 221.668 96.5364C221.668 95.5932 221.825 94.7864 222.139 94.116C222.457 93.4455 222.893 92.9322 223.446 92.5762C223.999 92.2201 224.626 92.0421 225.327 92.0421C225.868 92.0421 226.304 92.133 226.634 92.3148C226.967 92.4928 227.224 92.7012 227.406 92.9398C227.592 93.1784 227.736 93.3887 227.838 93.5705H227.94V89.2466H229.639V100.883H227.98V99.525H227.838C227.736 99.7106 227.588 99.9228 227.395 100.161C227.205 100.4 226.944 100.608 226.611 100.786C226.277 100.964 225.846 101.053 225.315 101.053ZM225.69 99.6046C226.179 99.6046 226.592 99.4758 226.929 99.2182C227.27 98.9569 227.527 98.5951 227.702 98.133C227.88 97.6709 227.969 97.133 227.969 96.5194C227.969 95.9133 227.882 95.383 227.707 94.9285C227.533 94.4739 227.277 94.1197 226.94 93.866C226.603 93.6122 226.187 93.4853 225.69 93.4853C225.179 93.4853 224.753 93.6178 224.412 93.883C224.071 94.1481 223.813 94.5099 223.639 94.9682C223.469 95.4266 223.384 95.9436 223.384 96.5194C223.384 97.1027 223.471 97.6273 223.645 98.0932C223.819 98.5591 224.077 98.9285 224.418 99.2012C224.762 99.4701 225.187 99.6046 225.69 99.6046Z" fill="black"/>
<path d="M145.327 68.9922V55.505H147.148V68.9922H145.327ZM139.488 63.1541V61.343H152.986V63.1541H139.488Z" fill="black"/>
<circle cx="145.869" cy="62.8438" r="22.5392" stroke="#CCD5F4"/>
</g>
<rect x="1.36914" y="1.04669" width="289" height="148" rx="14.5" stroke="#CCD5F4"/>
<defs>
<clipPath id="clip0_609_1635">
<rect x="0.869141" y="0.546692" width="290" height="149" rx="15" fill="white"/>
</clipPath>
</defs>
</svg>
