<svg width="18" height="16" viewBox="0 0 18 16" fill="none" xmlns="http://www.w3.org/2000/svg">
<path d="M7.9977 9.7901C7.9977 9.7138 7.9977 9.63751 7.9977 9.56121C7.9977 6.77606 7.99715 3.9904 7.99986 1.20525C7.99986 1.06459 8.00854 0.916665 8.05461 0.785349C8.18685 0.40801 8.58305 0.197281 9.00797 0.256451C9.39495 0.310431 9.69846 0.633791 9.72177 1.01943C9.72664 1.10352 9.72556 1.1876 9.72556 1.2722C9.72556 4.03815 9.72556 6.80409 9.72556 9.57003C9.72556 9.64529 9.72556 9.72055 9.72556 9.85187C9.81607 9.76882 9.86756 9.72367 9.91634 9.67643C10.7868 8.84182 11.6583 8.00773 12.5266 7.17053C12.739 6.96551 12.9845 6.84509 13.2891 6.88039C13.6414 6.92139 13.8945 7.10565 14.0143 7.42641C14.1341 7.74666 14.068 8.04666 13.8165 8.28801C12.3683 9.67851 10.9179 11.0675 9.46161 12.4512C9.11528 12.7803 8.60147 12.7761 8.25514 12.4465C6.80478 11.0669 5.35821 9.68318 3.91489 8.29684C3.55988 7.95583 3.5691 7.43627 3.91706 7.11188C4.2661 6.78592 4.79183 6.78956 5.15659 7.13575C6.04057 7.97607 6.91859 8.8221 7.79662 9.66813C7.84811 9.71744 7.87683 9.78855 7.91586 9.84927C7.94296 9.82955 7.9706 9.80983 7.9977 9.7901Z" fill="black"/>
<path d="M8.84197 15.9989C6.26752 15.9989 3.69306 15.9999 1.11861 15.9983C0.457927 15.9983 0.0243355 15.4445 0.246009 14.8845C0.378797 14.5481 0.648166 14.3753 1.01726 14.3411C1.08447 14.3348 1.15276 14.3379 1.22051 14.3379C6.31521 14.3379 11.4099 14.3379 16.5046 14.34C16.652 14.34 16.806 14.3488 16.9453 14.3898C17.349 14.5087 17.5821 14.8928 17.5214 15.3059C17.4677 15.6719 17.1263 15.9703 16.7279 15.9968C16.6537 16.002 16.5789 15.9994 16.5046 15.9994C13.9502 15.9994 11.3964 15.9994 8.84197 15.9994V15.9989Z" fill="black"/>
</svg>
