<svg width="15" height="16" viewBox="0 0 15 16" fill="none" xmlns="http://www.w3.org/2000/svg">
<path d="M1.80694 12.9294C1.36694 12.924 1.05304 12.5532 1.1507 12.1658C1.43133 11.0519 1.72324 9.94059 2.02104 8.83093C2.05216 8.71557 2.13694 8.60289 2.22387 8.51596C4.81826 5.91567 7.41586 3.3186 10.014 0.722071C10.3268 0.409779 10.6906 0.407633 11.0024 0.718315C11.7847 1.4969 12.5655 2.27763 13.344 3.06051C13.6558 3.37387 13.6585 3.73982 13.3478 4.0505C10.7518 6.64918 8.15474 9.24679 5.5523 11.8396C5.44445 11.9469 5.28991 12.0317 5.14235 12.0719C4.08474 12.3574 3.02392 12.6289 1.96363 12.9036C1.89977 12.9202 1.8327 12.9261 1.80641 12.9304L1.80694 12.9294ZM10.4819 2.03831C10.4341 2.09573 10.388 2.16173 10.3317 2.21807C8.23201 4.31933 6.1463 6.43508 4.02089 8.51006C3.44889 9.0681 3.02499 9.65191 2.91714 10.452C2.8828 10.7084 2.78997 10.9563 2.72558 11.2091C2.71323 11.2574 2.7068 11.3067 2.69338 11.3792C2.78138 11.3588 2.84523 11.3454 2.90802 11.3293C3.4446 11.1908 3.98333 11.0578 4.51669 10.9075C4.6444 10.8716 4.77694 10.7981 4.8703 10.7052C7.20659 8.37698 9.53752 6.04338 11.8722 3.71353C11.9221 3.66363 12.0015 3.6427 12.0519 3.61641C11.496 3.05782 11.0013 2.56041 10.483 2.03885L10.4819 2.03831Z" fill="black"/>
<path d="M7.85915 14.2028C9.97382 14.2028 12.089 14.2022 14.2037 14.2028C14.6212 14.2028 14.8991 14.441 14.9152 14.8037C14.9303 15.1429 14.7156 15.4128 14.3786 15.4718C14.3067 15.4841 14.2322 15.4863 14.1592 15.4863C9.95612 15.4868 5.75305 15.4868 1.55052 15.4863C1.12179 15.4863 0.861011 15.2985 0.795548 14.947C0.729011 14.5875 0.989791 14.2409 1.35467 14.2071C1.43462 14.1996 1.51511 14.2017 1.5956 14.2017C3.68345 14.2017 5.77183 14.2017 7.85968 14.2017L7.85915 14.2028Z" fill="black"/>
</svg>
