<svg width="10" height="16" viewBox="0 0 10 16" fill="none" xmlns="http://www.w3.org/2000/svg">
<path d="M6.73063 0.524292C5.74287 0.524292 4.79556 0.91668 4.0971 1.61514C3.39865 2.31359 3.00626 3.2609 3.00626 4.24866V6.32223H1.01322C0.913363 6.32223 0.832031 6.40276 0.832031 6.50342V9.24134C0.832031 9.34119 0.912558 9.42252 1.01322 9.42252H3.00626V15.0393C3.00626 15.1391 3.08679 15.2205 3.18744 15.2205H5.92536C6.02521 15.2205 6.10655 15.1399 6.10655 15.0393V9.42252H8.1173C8.20025 9.42252 8.27272 9.36615 8.29285 9.28563L8.97733 6.54771C8.98407 6.52099 8.98462 6.49309 8.97895 6.46613C8.97328 6.43917 8.96153 6.41385 8.94461 6.39211C8.92768 6.37037 8.90602 6.35278 8.88127 6.34067C8.85652 6.32856 8.82934 6.32225 8.80178 6.32223H6.10655V4.24866C6.10655 4.16671 6.12269 4.08555 6.15405 4.00984C6.18542 3.93412 6.23138 3.86532 6.28934 3.80737C6.34729 3.74942 6.41609 3.70345 6.4918 3.67209C6.56752 3.64072 6.64867 3.62458 6.73063 3.62458H8.82433C8.92418 3.62458 9.00552 3.54405 9.00552 3.44339V0.705478C9.00552 0.605624 8.92499 0.524292 8.82433 0.524292H6.73063Z" fill="#0E66CE"/>
</svg>
