<svg width="537" height="121" viewBox="0 0 537 121" fill="none" xmlns="http://www.w3.org/2000/svg">
<path d="M452.568 24.5079C450.973 24.7211 449.204 24.6438 447.717 25.1218C446.22 25.6708 444.822 26.5556 443.618 27.5889C438.484 31.9739 433.417 36.3847 428.409 40.8924C426.473 42.6167 425.033 44.9028 424.563 47.9313C424.168 50.3916 424.762 51.2891 427.095 51.954C430.26 52.7867 433.11 52.2311 435.579 50.7844C439.486 48.6919 443.334 46.5025 446.998 44.0935C449.88 42.2077 452.705 40.225 455.344 38.0228C456.471 37.0347 457.46 35.472 457.888 33.8447C458.704 30.3512 456.173 26.3285 452.568 24.5079Z" fill="white"/>
<path d="M418.658 37.5506C418.591 34.1792 418.585 30.8309 418.336 27.3901C418.185 24.6559 416.406 22.6401 414.166 22.1885C411.927 21.7369 410.251 23.3069 410.28 25.9948C410.277 31.3473 410.275 36.6998 410.342 42.0118C410.361 44.2942 411.296 45.9219 412.808 46.5647C414.259 47.1844 415.61 46.6282 416.313 44.6875C417.231 42.5615 417.88 40.0647 418.658 37.5506Z" fill="white"/>
<path d="M35.6362 120.057C58.0082 120.057 71.4502 103.325 70.0402 81.0466H34.7902V95.0526H51.0522C49.0782 100.693 44.2842 105.017 36.5762 105.017C24.3562 105.017 18.8102 96.2746 18.8102 84.9946C18.8102 71.7406 25.8602 65.6306 34.6022 65.6306C41.4642 65.6306 46.4462 69.4846 48.1382 74.6546H69.1942C64.4942 59.5206 51.9922 49.7446 35.0722 49.7446C15.2382 49.7446 0.574219 64.5966 0.574219 84.5246C0.574219 105.581 15.9902 120.057 35.6362 120.057Z" fill="white"/>
<path d="M100.863 119.493C113.459 119.493 122.389 113.007 125.491 101.445H109.417C108.007 105.111 104.999 106.991 100.487 106.991C95.3167 106.991 92.3087 103.795 91.4627 97.4026H125.773C128.687 80.7646 117.501 67.1346 100.769 67.1346C85.7287 67.1346 74.8247 78.1326 74.8247 93.2666C74.8247 108.965 85.2587 119.493 100.863 119.493ZM100.393 78.9786C105.187 78.9786 108.383 82.2686 108.571 87.3446H91.6507C92.7787 81.7046 95.5987 78.9786 100.393 78.9786Z" fill="white"/>
<path d="M167.033 102.855C165.247 103.983 162.709 104.641 160.077 104.641C155.659 104.641 153.591 102.385 153.591 97.4966V82.0806H167.409V68.0746H153.591V53.2226H137.517V68.0746H128.117V82.0806H137.517V101.257C137.517 112.819 144.191 119.587 155.565 119.587C160.077 119.587 163.461 118.835 167.033 116.861V102.855Z" fill="white"/>
<path d="M213.318 118.647V51.1546H195.552V118.647H213.318Z" fill="white"/>
<path d="M241.245 92.0446C241.245 84.4306 244.817 81.6106 248.765 81.6106C253.653 81.6106 255.909 85.0886 255.909 91.4806V118.647H271.983V86.1226C271.983 73.8086 264.933 67.1346 254.969 67.1346C248.577 67.1346 243.877 69.7666 239.929 74.1846V68.0746H225.171V118.647H241.245V92.0446Z" fill="white"/>
<path d="M336.322 118.647V67.2286H357.002V51.1546H297.876V67.2286H318.556V118.647H336.322Z" fill="white"/>
<path d="M456.672 119.587C471.054 119.587 480.924 110.563 482.334 96.0866H465.226C464.85 101.821 461.748 105.205 456.766 105.205C451.032 105.205 447.836 100.975 447.836 93.3606C447.836 85.9346 451.126 81.6106 456.766 81.6106C461.654 81.6106 464.944 85.0886 465.226 90.6346H482.334C480.924 76.5346 470.584 67.1346 456.672 67.1346C442.102 67.1346 431.198 78.3206 431.198 93.3606C431.198 108.777 441.632 119.587 456.672 119.587Z" fill="white"/>
<path d="M505.729 92.0446C505.729 84.4306 509.301 81.6106 513.249 81.6106C518.137 81.6106 520.393 85.0886 520.393 91.4806V118.647H536.467V86.1226C536.467 73.8086 529.417 67.1346 519.453 67.1346C513.061 67.1346 509.395 69.5786 505.729 73.5266V51.1546H489.655V118.647H505.729V92.0446Z" fill="white"/>
<path d="M417.329 70.9752C421.023 70.9752 424.018 67.9721 424.018 64.2676C424.018 60.5631 421.023 57.5601 417.329 57.5601C413.635 57.5601 410.641 60.5631 410.641 64.2676C410.641 67.9721 413.635 70.9752 417.329 70.9752Z" fill="white"/>
<path d="M371.446 70.9752C375.14 70.9752 378.135 67.9721 378.135 64.2676C378.135 60.5631 375.14 57.5601 371.446 57.5601C367.752 57.5601 364.758 60.5631 364.758 64.2676C364.758 67.9721 367.752 70.9752 371.446 70.9752Z" fill="white"/>
<path fill-rule="evenodd" clip-rule="evenodd" d="M364.758 75.6189H377.979V92.1454H378C377.987 92.3888 377.98 92.6337 377.98 92.88C377.98 101.196 385.297 107.937 394.323 107.937C403.264 107.937 410.527 101.323 410.664 93.1157V92.6444C410.661 92.4774 410.656 92.311 410.647 92.1454H410.664V75.6189H423.885V92.6962L423.885 92.6965C423.885 92.7576 423.886 92.8188 423.886 92.88C423.886 107.889 410.649 120.057 394.322 120.057C377.994 120.057 364.758 107.889 364.758 92.88C364.758 92.8799 364.758 92.8799 364.758 92.8798V75.6189Z" fill="white"/>
</svg>
