<svg width="16" height="16" viewBox="0 0 16 16" fill="none" xmlns="http://www.w3.org/2000/svg">
<path d="M4.67887 0.239258H11.1553C13.6225 0.239258 15.6272 2.24387 15.6272 4.7111V11.1876C15.6272 12.3736 15.156 13.511 14.3174 14.3496C13.4788 15.1882 12.3413 15.6594 11.1553 15.6594H4.67887C2.21165 15.6594 0.207031 13.6548 0.207031 11.1876V4.7111C0.207031 3.52509 0.67817 2.38766 1.5168 1.54903C2.35543 0.710397 3.49286 0.239258 4.67887 0.239258ZM4.52467 1.78127C3.78853 1.78127 3.08254 2.0737 2.56201 2.59423C2.04148 3.11476 1.74904 3.82075 1.74904 4.55689V11.3418C1.74904 12.8761 2.99036 14.1174 4.52467 14.1174H11.3095C12.0457 14.1174 12.7517 13.8249 13.2722 13.3044C13.7927 12.7839 14.0851 12.0779 14.0851 11.3418V4.55689C14.0851 3.02259 12.8438 1.78127 11.3095 1.78127H4.52467ZM11.9649 2.93778C12.2205 2.93778 12.4656 3.03932 12.6464 3.22006C12.8271 3.4008 12.9286 3.64593 12.9286 3.90154C12.9286 4.15714 12.8271 4.40228 12.6464 4.58302C12.4656 4.76376 12.2205 4.8653 11.9649 4.8653C11.7093 4.8653 11.4641 4.76376 11.2834 4.58302C11.1027 4.40228 11.0011 4.15714 11.0011 3.90154C11.0011 3.64593 11.1027 3.4008 11.2834 3.22006C11.4641 3.03932 11.7093 2.93778 11.9649 2.93778ZM7.9171 4.09429C8.93951 4.09429 9.92006 4.50044 10.643 5.2234C11.366 5.94636 11.7721 6.9269 11.7721 7.94932C11.7721 8.97174 11.366 9.95228 10.643 10.6752C9.92006 11.3982 8.93951 11.8044 7.9171 11.8044C6.89468 11.8044 5.91414 11.3982 5.19118 10.6752C4.46822 9.95228 4.06206 8.97174 4.06206 7.94932C4.06206 6.9269 4.46822 5.94636 5.19118 5.2234C5.91414 4.50044 6.89468 4.09429 7.9171 4.09429ZM7.9171 5.6363C7.30365 5.6363 6.71532 5.88 6.28154 6.31377C5.84777 6.74755 5.60408 7.33587 5.60408 7.94932C5.60408 8.56277 5.84777 9.1511 6.28154 9.58487C6.71532 10.0187 7.30365 10.2623 7.9171 10.2623C8.53055 10.2623 9.11887 10.0187 9.55265 9.58487C9.98642 9.1511 10.2301 8.56277 10.2301 7.94932C10.2301 7.33587 9.98642 6.74755 9.55265 6.31377C9.11887 5.88 8.53055 5.6363 7.9171 5.6363Z" fill="url(#paint0_linear_563_1531)"/>
<defs>
<linearGradient id="paint0_linear_563_1531" x1="18.1766" y1="-2.09915" x2="7.9171" y2="15.6594" gradientUnits="userSpaceOnUse">
<stop stop-color="#AB3EAF"/>
<stop offset="0.399511" stop-color="#BF448E"/>
<stop offset="1" stop-color="#F1A558"/>
</linearGradient>
</defs>
</svg>
