<svg width="11" height="11" viewBox="0 0 11 11" fill="none" xmlns="http://www.w3.org/2000/svg">
<path fill-rule="evenodd" clip-rule="evenodd" d="M3.9678 3.91543H5.91628V4.886C6.19696 4.32779 6.91675 3.82625 7.99802 3.82625C10.0708 3.82625 10.5629 4.93742 10.5629 6.97613V10.7519H8.46441V7.44043C8.46441 6.27942 8.18374 5.62468 7.46919 5.62468C6.47816 5.62468 6.06632 6.33031 6.06632 7.43991V10.7519H3.9678V3.91543ZM0.369352 10.6627H2.46788V3.82625H0.369352V10.6627ZM2.76849 1.59709C2.76857 1.77298 2.73369 1.94714 2.66587 2.10944C2.59805 2.27173 2.49865 2.41893 2.37344 2.54247C2.11973 2.79462 1.77631 2.93576 1.41862 2.9349C1.06155 2.93466 0.71892 2.79388 0.464835 2.543C0.340084 2.41903 0.24102 2.27167 0.173321 2.10935C0.105621 1.94704 0.0706163 1.77296 0.0703125 1.59709C0.0703125 1.24191 0.211963 0.901951 0.46536 0.651177C0.719221 0.399962 1.06199 0.25912 1.41914 0.259277C1.77694 0.259277 2.12005 0.400403 2.37344 0.651177C2.62632 0.901951 2.76849 1.24191 2.76849 1.59709Z" fill="#3B64AE"/>
</svg>
