<svg width="15" height="21" viewBox="0 0 15 21" fill="none" xmlns="http://www.w3.org/2000/svg">
<path d="M7.83594 9.70483C7.1729 9.70483 6.53701 9.44144 6.06817 8.9726C5.59933 8.50376 5.33594 7.86788 5.33594 7.20483C5.33594 6.54179 5.59933 5.90591 6.06817 5.43707C6.53701 4.96823 7.1729 4.70483 7.83594 4.70483C8.49898 4.70483 9.13486 4.96823 9.6037 5.43707C10.0725 5.90591 10.3359 6.54179 10.3359 7.20483C10.3359 7.53314 10.2713 7.85823 10.1456 8.16154C10.02 8.46486 9.83585 8.74045 9.6037 8.9726C9.37156 9.20475 9.09596 9.3889 8.79265 9.51453C8.48933 9.64017 8.16424 9.70483 7.83594 9.70483ZM7.83594 0.204834C5.97942 0.204834 4.19894 0.942332 2.88619 2.25509C1.57344 3.56784 0.835938 5.34832 0.835938 7.20483C0.835938 12.4548 7.83594 20.2048 7.83594 20.2048C7.83594 20.2048 14.8359 12.4548 14.8359 7.20483C14.8359 5.34832 14.0984 3.56784 12.7857 2.25509C11.4729 0.942332 9.69245 0.204834 7.83594 0.204834Z" fill="white"/>
</svg>
