<svg width="36" height="35" viewBox="0 0 36 35" fill="none" xmlns="http://www.w3.org/2000/svg">
<circle cx="17.7422" cy="17.366" r="17.332" fill="#CCD5F4"/>
<mask id="mask0_563_2401" style="mask-type:alpha" maskUnits="userSpaceOnUse" x="1" y="0" width="34" height="35">
<circle cx="17.692" cy="17.3659" r="16.6764" fill="#D9D9D9"/>
</mask>
<g mask="url(#mask0_563_2401)">
<mask id="mask1_563_2401" style="mask-type:luminance" maskUnits="userSpaceOnUse" x="-9" y="-56" width="53" height="114">
<path d="M43.7865 -51.4502V52.8321C43.7865 53.821 43.4497 54.739 42.8829 55.4778C42.8511 55.5183 42.8208 55.5558 42.789 55.5934C42.6921 55.7091 42.5924 55.8204 42.4868 55.9259C42.3929 56.017 42.2945 56.1081 42.1933 56.192H42.1919C42.0632 56.2975 41.9288 56.3958 41.7885 56.4883C41.6498 56.578 41.5052 56.6618 41.3548 56.737H41.3534C41.2797 56.7731 41.203 56.8078 41.125 56.8425H41.1235C41.0469 56.8758 40.9674 56.9047 40.8879 56.9336C40.7288 56.9914 40.564 57.0377 40.3963 57.0767C40.1954 57.1216 39.9901 57.1534 39.779 57.1707C39.7559 57.1721 39.7414 57.1736 39.7212 57.1765H39.6937L39.6648 57.1779H39.659C39.6402 57.1794 39.6185 57.1794 39.5997 57.1808C39.5809 57.1808 39.5636 57.1823 39.5448 57.1823C39.5072 57.1823 39.4682 57.1837 39.432 57.1837H-4.04496C-4.0811 57.1837 -4.11869 57.1823 -4.15772 57.1823C-4.19531 57.1808 -4.23435 57.1794 -4.27194 57.1794H-4.27916L-4.30663 57.1779H-4.3182L-4.33266 57.1765C-4.35145 57.175 -4.3688 57.1736 -4.39193 57.1707C-6.64002 56.9943 -8.40234 55.0874 -8.40234 52.8307V-51.4502C-8.40234 -53.7445 -6.61978 -55.6457 -4.33555 -55.796H-4.29796L-4.23868 -55.8018C-4.16784 -55.8047 -4.10568 -55.8047 -4.0464 -55.8047H2.22655C2.58509 -55.7859 2.87568 -55.5083 2.91182 -55.1541C2.91327 -55.1295 2.91327 -55.105 2.91327 -55.0818V-55.0717C2.91327 -55.0717 2.91327 -55.063 2.91471 -55.0601C2.9205 -54.9286 2.93351 -54.7985 2.95664 -54.6712C2.96387 -54.6264 2.9711 -54.5831 2.98122 -54.5397C2.99134 -54.4847 3.00435 -54.4327 3.01736 -54.3807C3.02748 -54.3344 3.04194 -54.2867 3.05495 -54.2404C3.05784 -54.2303 3.06217 -54.2173 3.06507 -54.2072C3.06796 -54.1956 3.0723 -54.184 3.07663 -54.1725C3.07808 -54.1624 3.08241 -54.1537 3.08531 -54.145C3.09109 -54.1291 3.09543 -54.1132 3.10121 -54.0987C3.10699 -54.0828 3.11133 -54.0669 3.11711 -54.0525C3.11856 -54.051 3.11856 -54.0496 3.12 -54.0467C3.13446 -54.0033 3.15181 -53.9614 3.16916 -53.9209C3.18651 -53.879 3.20386 -53.84 3.22265 -53.7995C3.2241 -53.7923 3.22554 -53.7879 3.22988 -53.7821C3.23132 -53.7792 3.23132 -53.7763 3.23277 -53.7735C3.24867 -53.7388 3.26602 -53.7055 3.28337 -53.6737C3.29783 -53.6448 3.31228 -53.6144 3.32819 -53.587C3.33397 -53.5783 3.33831 -53.5682 3.34409 -53.5595C3.35132 -53.5436 3.35999 -53.5306 3.36867 -53.5161C3.37879 -53.4959 3.3918 -53.4756 3.40337 -53.4568C3.40626 -53.4511 3.40915 -53.4467 3.41204 -53.4409C3.41782 -53.4323 3.42216 -53.425 3.42649 -53.4178C3.43517 -53.4034 3.4424 -53.3918 3.45107 -53.3802C3.45975 -53.3643 3.46842 -53.3513 3.47854 -53.3369C3.48577 -53.3253 3.49445 -53.3123 3.50312 -53.3007C3.5089 -53.2935 3.51179 -53.2863 3.51758 -53.2819C3.5277 -53.266 3.53637 -53.253 3.54649 -53.2385C3.55372 -53.2284 3.56095 -53.2183 3.56962 -53.2096C3.5783 -53.1937 3.58842 -53.1807 3.60143 -53.1663C3.60287 -53.1634 3.60721 -53.159 3.60866 -53.1561C3.6101 -53.1532 3.61444 -53.1489 3.61733 -53.1475C3.62745 -53.1316 3.64046 -53.1157 3.65203 -53.1012C3.65492 -53.094 3.6607 -53.0896 3.66648 -53.0839C3.67805 -53.0665 3.69251 -53.0492 3.70696 -53.0333H3.70841C3.71709 -53.0217 3.72576 -53.0087 3.73588 -52.9986C3.75178 -52.9783 3.76913 -52.9581 3.78792 -52.9393C3.7966 -52.9277 3.80527 -52.9161 3.81539 -52.906H3.81684C3.82696 -52.8916 3.83997 -52.88 3.85154 -52.8684C3.8631 -52.854 3.87756 -52.841 3.89202 -52.8265C3.90358 -52.8121 3.91659 -52.8005 3.92961 -52.7889C3.95274 -52.7643 3.97442 -52.7427 4.00044 -52.7195C4.01779 -52.7007 4.03514 -52.6848 4.05538 -52.6675C4.06695 -52.6574 4.07851 -52.6472 4.09008 -52.6357C4.10165 -52.6256 4.11321 -52.6154 4.12622 -52.6039C4.14213 -52.5894 4.15803 -52.5764 4.17538 -52.5634C4.2014 -52.5388 4.22887 -52.5171 4.25634 -52.4969C4.27368 -52.4824 4.28959 -52.4709 4.30694 -52.4593C4.32139 -52.4477 4.3344 -52.4362 4.34886 -52.4261C4.35464 -52.4232 4.35898 -52.4188 4.36621 -52.4159C4.36621 -52.4145 4.36766 -52.4145 4.36766 -52.4145C4.38645 -52.4 4.40525 -52.387 4.42693 -52.374C4.43561 -52.3653 4.44428 -52.3595 4.45295 -52.3552C4.46452 -52.3465 4.47753 -52.3379 4.4891 -52.3292C4.49054 -52.3292 4.49054 -52.3277 4.49199 -52.3277C4.51078 -52.3162 4.52958 -52.3032 4.55126 -52.293C4.57729 -52.2743 4.60331 -52.2583 4.62933 -52.2439C4.66258 -52.2237 4.69439 -52.2034 4.72909 -52.189C4.74065 -52.1803 4.75511 -52.1731 4.76667 -52.1658C4.76956 -52.1644 4.77246 -52.1629 4.77535 -52.1629C4.79992 -52.1485 4.8245 -52.1369 4.84908 -52.1253C4.86932 -52.1138 4.89245 -52.1022 4.91703 -52.0921C4.93582 -52.082 4.95751 -52.0733 4.97775 -52.0646C4.98787 -52.0588 4.99799 -52.0545 5.011 -52.0502C5.01967 -52.0444 5.02835 -52.0415 5.03847 -52.0386C5.04714 -52.0328 5.05726 -52.0299 5.06594 -52.027C5.11075 -52.0082 5.15413 -51.9923 5.19894 -51.9764C5.22352 -51.9663 5.24954 -51.9576 5.27557 -51.949C5.30014 -51.9403 5.32472 -51.9331 5.34785 -51.9258C5.3652 -51.9186 5.38255 -51.9143 5.40134 -51.9085C5.43748 -51.8984 5.47507 -51.8882 5.51266 -51.8796C5.52134 -51.8767 5.53001 -51.8738 5.53724 -51.8723C5.58639 -51.8608 5.63266 -51.8492 5.68037 -51.8391C5.71795 -51.8304 5.75699 -51.8232 5.79458 -51.8189C5.81337 -51.816 5.83217 -51.8116 5.85241 -51.8102C5.85241 -51.8102 5.86253 -51.8073 5.86831 -51.8073C5.91024 -51.8001 5.95361 -51.7957 5.99698 -51.7914C6.0071 -51.7899 6.01577 -51.7899 6.02589 -51.7885C6.02878 -51.787 6.03312 -51.787 6.03601 -51.787C6.05481 -51.7856 6.07649 -51.7842 6.09529 -51.7813C6.10541 -51.7798 6.11842 -51.7798 6.12854 -51.7798C6.15601 -51.7769 6.18347 -51.774 6.21094 -51.774C6.25287 -51.7711 6.29335 -51.7683 6.33527 -51.7711C6.34973 -51.7697 6.36419 -51.7697 6.38009 -51.7697H29.0084C29.0243 -51.7697 29.0402 -51.7697 29.0532 -51.7711C29.0952 -51.7697 29.1356 -51.7711 29.1776 -51.774C29.205 -51.774 29.2325 -51.7755 29.26 -51.7798C29.2701 -51.7798 29.2831 -51.7798 29.2932 -51.7813C29.312 -51.7827 29.3337 -51.7842 29.3525 -51.787C29.3554 -51.787 29.3597 -51.787 29.3626 -51.7885C29.3727 -51.7899 29.3814 -51.7899 29.3915 -51.7914C29.4349 -51.7943 29.4783 -51.8001 29.5202 -51.8073C29.526 -51.8073 29.5303 -51.8087 29.5361 -51.8087C29.5549 -51.8116 29.5737 -51.816 29.5939 -51.8189C29.6315 -51.8246 29.6706 -51.8304 29.7082 -51.8391C29.7573 -51.8492 29.8036 -51.8593 29.8513 -51.8723C29.8585 -51.8738 29.8672 -51.8752 29.8759 -51.8796C29.912 -51.8882 29.9496 -51.8984 29.9872 -51.9085C30.006 -51.9143 30.0233 -51.9186 30.0407 -51.9244C30.0652 -51.9331 30.0898 -51.9403 30.1129 -51.949C30.139 -51.9576 30.165 -51.9663 30.1896 -51.9764C30.2344 -51.9923 30.2778 -52.0082 30.3226 -52.027C30.3313 -52.0299 30.3414 -52.0343 30.35 -52.0386C30.3602 -52.0415 30.3688 -52.0458 30.3775 -52.0502C30.3891 -52.0531 30.4006 -52.0588 30.4108 -52.0646C30.431 -52.0733 30.4527 -52.082 30.4715 -52.0921C30.4961 -52.1022 30.5177 -52.1123 30.5394 -52.1253C30.5655 -52.1369 30.59 -52.1499 30.6132 -52.1629C30.6161 -52.1629 30.6189 -52.1644 30.6218 -52.1658C30.6334 -52.1731 30.6479 -52.1803 30.6594 -52.189C30.6941 -52.2049 30.7274 -52.2237 30.7592 -52.2439C30.7852 -52.2583 30.8112 -52.2728 30.8373 -52.293C30.8575 -52.3032 30.8777 -52.3162 30.8965 -52.3277C30.898 -52.3277 30.898 -52.3292 30.8994 -52.3292C30.911 -52.3379 30.924 -52.3465 30.9356 -52.3552C30.9442 -52.361 30.9529 -52.3653 30.9616 -52.374C30.9818 -52.3856 31.0021 -52.4 31.0209 -52.4145C31.0209 -52.4145 31.0223 -52.4145 31.0223 -52.4159C31.0295 -52.4188 31.0339 -52.4232 31.0397 -52.4261C31.0541 -52.4362 31.0671 -52.4463 31.0816 -52.4593C31.0989 -52.4709 31.1148 -52.4839 31.1322 -52.4969C31.1596 -52.5157 31.1871 -52.5388 31.2131 -52.5605C31.2305 -52.575 31.2464 -52.588 31.2623 -52.6024C31.2768 -52.6125 31.2869 -52.6227 31.2984 -52.6342C31.31 -52.6444 31.3216 -52.6545 31.3331 -52.666C31.3534 -52.6834 31.3707 -52.6993 31.3881 -52.7181C31.4141 -52.7412 31.4372 -52.7629 31.4589 -52.7875C31.4734 -52.799 31.4849 -52.8121 31.4965 -52.8251C31.511 -52.8395 31.524 -52.8525 31.537 -52.867C31.5485 -52.8786 31.5616 -52.8916 31.5717 -52.9046H31.5731C31.5731 -52.9046 31.5746 -52.906 31.5746 -52.9075C31.5934 -52.9263 31.6122 -52.948 31.6281 -52.9696C31.6382 -52.9783 31.6454 -52.987 31.6526 -52.9957C31.6628 -53.0058 31.6714 -53.0188 31.6801 -53.0304H31.6816C31.696 -53.0463 31.709 -53.0636 31.722 -53.081C31.7278 -53.0867 31.7322 -53.0911 31.7365 -53.0983C31.7481 -53.1142 31.7611 -53.1301 31.7712 -53.1446C31.7741 -53.146 31.7784 -53.1504 31.7799 -53.1532C31.7813 -53.1561 31.7856 -53.1605 31.7871 -53.1634C31.7987 -53.1778 31.8102 -53.1908 31.8189 -53.2067C31.8276 -53.2154 31.8348 -53.2255 31.842 -53.2357C31.8521 -53.2501 31.8608 -53.2631 31.8709 -53.279C31.8767 -53.2863 31.8811 -53.2906 31.8854 -53.2978C31.8941 -53.3094 31.9027 -53.3224 31.91 -53.334C31.9201 -53.3484 31.9288 -53.3614 31.9374 -53.3773C31.9461 -53.3889 31.9533 -53.4019 31.962 -53.4149C31.9678 -53.4236 31.9721 -53.4308 31.9765 -53.4381C31.9794 -53.4438 31.9823 -53.4482 31.9852 -53.454C31.9967 -53.4727 32.0097 -53.4915 32.0198 -53.5132C32.0285 -53.5277 32.0372 -53.5407 32.0444 -53.5566C32.0517 -53.5667 32.056 -53.5754 32.0603 -53.5841C32.0762 -53.6115 32.0921 -53.6419 32.1051 -53.6708C32.1225 -53.7041 32.1398 -53.7359 32.1557 -53.7706C32.1572 -53.7735 32.1572 -53.7763 32.1586 -53.7792C32.1615 -53.785 32.1644 -53.7894 32.1659 -53.7966C32.1847 -53.8371 32.202 -53.8761 32.2194 -53.918C32.2367 -53.96 32.2541 -54.0004 32.2685 -54.0438C32.27 -54.0453 32.27 -54.0467 32.2714 -54.0496C32.2772 -54.0655 32.2815 -54.0814 32.2873 -54.0959C32.2931 -54.1118 32.2974 -54.1277 32.3032 -54.1421C32.3061 -54.1508 32.3104 -54.1595 32.3119 -54.1696C32.3177 -54.1811 32.3206 -54.1942 32.3234 -54.2043C32.3263 -54.2158 32.3307 -54.2274 32.3336 -54.2375C32.348 -54.2838 32.361 -54.3315 32.3712 -54.3778C32.3856 -54.4298 32.3972 -54.4819 32.4073 -54.5353C32.4174 -54.5802 32.4246 -54.6235 32.4319 -54.6684C32.455 -54.797 32.468 -54.9257 32.4738 -55.0573C32.4752 -55.0601 32.4752 -55.0659 32.4752 -55.0688V-55.0789C32.4752 -55.1035 32.4767 -55.1281 32.4767 -55.1512C32.5128 -55.5054 32.8034 -55.783 33.162 -55.8018H39.4349C39.4942 -55.8018 39.5578 -55.8018 39.6272 -55.7989H39.6474L39.685 -55.7931H39.7226C39.7602 -55.7917 39.7992 -55.7873 39.8368 -55.783C39.8556 -55.783 39.8744 -55.7816 39.8947 -55.7772C39.9322 -55.7743 39.9713 -55.77 40.0089 -55.7628C40.0537 -55.757 40.0985 -55.7526 40.1433 -55.744C40.1448 -55.744 40.1491 -55.744 40.1505 -55.7425C40.2156 -55.7324 40.2807 -55.7194 40.3443 -55.7078C40.3558 -55.7049 40.3689 -55.7006 40.3804 -55.6992C40.4339 -55.6876 40.486 -55.6746 40.538 -55.6616C40.6146 -55.6413 40.6898 -55.6182 40.7664 -55.5936C40.8271 -55.5748 40.8879 -55.5531 40.9457 -55.5329C41.0093 -55.5083 41.0744 -55.4823 41.1365 -55.4563C41.2609 -55.4028 41.3837 -55.3435 41.5037 -55.2799C41.6107 -55.2206 41.7177 -55.1585 41.8204 -55.0919C41.8435 -55.076 41.8652 -55.0601 41.8897 -55.0457C41.9317 -55.0168 41.9721 -54.9864 42.0141 -54.9575C42.0676 -54.917 42.1211 -54.8765 42.1731 -54.8346C42.2772 -54.7493 42.3769 -54.6611 42.4724 -54.5686C42.5201 -54.5223 42.5678 -54.4732 42.6126 -54.4255C42.6574 -54.3763 42.7022 -54.3272 42.7456 -54.2766C42.9191 -54.0727 43.0738 -53.853 43.2097 -53.6202C43.2776 -53.5046 43.3383 -53.3831 43.3947 -53.2602C43.4497 -53.1373 43.5017 -53.013 43.5465 -52.8829C43.5697 -52.8193 43.5899 -52.7542 43.6087 -52.6892C43.6506 -52.5475 43.6868 -52.4029 43.7128 -52.2569C43.7244 -52.1991 43.733 -52.1412 43.7417 -52.082C43.7735 -51.8767 43.788 -51.6627 43.788 -51.4487L43.7865 -51.4502Z" fill="white"/>
</mask>
<g mask="url(#mask1_563_2401)">
<path d="M11.5109 1.47455C12.0371 -2.7932 12.6169 -7.39491 13.1316 -11.4458L10.5437 -11.3807L9.38281 0.89482L11.5095 1.47455H11.5109Z" fill="#B5C2EF"/>
<path d="M30.3027 4.55111L31.6096 -1.8216L28.7023 -2.1599L27.2248 2.783L27.2204 2.79601V2.7989L26.1463 2.48084V2.47795L26.1535 2.45482L27.8652 -3.38442L27.8985 -3.38008L29.3861 -8.35334L29.3052 -11.8274L29.2126 -11.8462L28.4551 -11.8274L28.0734 -8.53984L26.661 -3.73428L25.5868 -4.05089L26.9732 -8.76537L27.326 -11.7999L18.9379 -11.5903L17.7539 2.62831C20.7552 3.13576 24.5517 3.7444 28.1573 4.22871C28.8498 4.32269 29.5683 4.43112 30.3027 4.55111Z" fill="#B5C2EF"/>
<path d="M17.8149 -11.5615L15.3991 -11.5008C15.2618 -10.4252 15.1201 -9.3091 14.977 -8.16698C14.5591 -4.86786 14.1211 -1.36779 13.7148 1.92555C14.484 2.0629 15.4844 2.24072 16.6496 2.44023L17.8163 -11.5615H17.8149Z" fill="#B5C2EF"/>
<path d="M23.024 16.6416L22.1406 21.9329L29.4386 22.731L30.1846 18.9345L23.1194 16.6561L23.024 16.6416Z" fill="#B5C2EF"/>
<path d="M29.9115 24.1911L29.2031 28.242L31.8314 29.5171L34.8024 23.0996H34.8038L35.4804 23.4133L32.5022 29.8439L34.9325 31.0221L37.7863 24.7203H37.7878L38.4673 25.0268L35.6033 31.3489L40.0388 33.5015L40.4696 21.4139L31.1462 17.8965L29.9115 24.1911Z" fill="#B5C2EF"/>
<path d="M13.7442 24.791L13.3828 32.6556L15.281 27.4641L21.142 30.3656L22.034 25.8189L13.9394 23.6604L13.7442 24.791Z" fill="#B5C2EF"/>
<path d="M50.3878 9.60081V6.2482L49.6591 6.00966L50.3878 3.78326V1.49469L43.5669 -0.581357L41.7684 5.04826L40.7029 4.70851L40.7622 4.52346L42.8296 -1.97503L42.8383 -1.97213L46.1258 -12.2656L41.9491 -12.1615L37.5787 3.53748L36.5002 3.23678L40.7796 -12.1326L34.9143 -11.9866L33.6739 -4.54551L32.5693 -4.72911L33.7736 -11.9577L30.4239 -11.8753L30.5092 -8.20028L29.0273 -3.24726L32.951 -2.79041L31.4055 4.74032C38.517 5.9952 46.8848 8.2722 50.3878 9.60081Z" fill="#B5C2EF"/>
<path d="M15.4595 36.3582L17.7697 29.5287L15.6951 28.5022L13.4745 34.58L13.2967 34.5149L13.2461 35.6252L13.0234 36.5013L13.3357 36.5953L13.622 35.6961L15.4595 36.3582Z" fill="#B5C2EF"/>
<path d="M4.37375 4.46574C-0.291574 3.62578 -4.63161 1.86489 -9.24055 0.860123C-10.6834 0.544957 -12.1334 0.268826 -13.582 -0.00585938V7.79088C-11.1735 8.59759 -9.14224 10.0101 -9.14224 10.0101C-6.93753 16.2093 -9.82028 19.0516 -13.582 19.9652V31.5237L3.98774 33.7111L3.96027 33.9366C5.06914 31.4269 5.74573 29.9016 5.74573 29.9002C5.74573 29.8988 5.95102 29.4318 6.28643 28.56C6.62183 27.6883 7.08013 26.4261 7.57022 24.8792C8.55042 21.7883 9.65061 17.561 10.1364 13.062C10.3373 11.21 10.638 8.64674 10.9893 5.73363C8.78463 5.30859 6.58136 4.86475 4.37375 4.46718V4.46574Z" fill="#B5C2EF"/>
<path d="M-4.41631 33.792L-4.75749 43.3352L-4.91797 43.3294L-0.608292 44.3153C1.01091 40.6259 2.47253 37.3094 3.58573 34.7881L-4.41486 33.792H-4.41631Z" fill="#B5C2EF"/>
<path d="M15.3425 15.5615L14.0703 22.9231L23.333 25.3924L28.5072 27.9022L29.1795 24.0551L29.2951 23.4667L21.2758 22.5892L22.2849 16.5388L19.6638 16.1702L18.4667 21.7174L17.7381 21.5612L18.9236 16.0661L15.3425 15.5615Z" fill="#B5C2EF"/>
<path d="M-13.582 -4.20288V-1.66999C-11.1402 -1.1958 -8.68829 -0.773648 -6.26382 -0.185242C-1.88331 0.878804 2.26156 2.49222 6.72304 3.27725C8.21357 3.53892 9.69976 3.82083 11.186 4.10564C11.2467 3.60976 11.3074 3.10665 11.371 2.59632L-13.582 -4.20288Z" fill="#B5C2EF"/>
<path d="M28.2188 33.8601L30.0591 34.7059L31.5569 30.214L29.0674 29.0068L28.2188 33.8601Z" fill="#B5C2EF"/>
<path d="M22.7569 26.0112L21.8359 30.7084L27.5205 33.5232L28.3706 28.6685L23.0677 26.0951L22.7569 26.0112Z" fill="#B5C2EF"/>
<path d="M27.3126 34.2517L21.6858 31.4673L20.3789 38.1306L24.7883 39.7194L27.3126 34.2517Z" fill="#B5C2EF"/>
<path d="M20.9942 31.1232L18.4468 29.8625L16.1641 36.6111L19.6685 37.8747L20.9942 31.1232Z" fill="#B5C2EF"/>
<path d="M40.0175 34.1651L39.9568 34.2894L35.3319 32.0457L33.7734 36.4132L39.8382 39.2034L40.0175 34.1651Z" fill="#B5C2EF"/>
<path d="M30.7422 35.0194L33.09 36.0993L34.6543 31.7174L32.2342 30.5435L30.7422 35.0194Z" fill="#B5C2EF"/>
<path d="M17.3639 6.84259C15.9702 6.63874 14.5809 6.4002 13.1959 6.14575C12.8518 8.99236 12.5598 11.4934 12.3632 13.302C11.341 22.7108 7.81928 30.7374 7.79615 30.801C7.7947 30.8053 7.19184 32.1657 6.19141 34.4283L12.3097 36.286L12.5034 35.5183L13.0007 24.7073L15.8661 8.14228L16.602 8.26951L15.4686 14.8273L19.08 15.3347L19.1016 15.2364L19.972 8.53118L20.7107 8.62805L19.839 15.355L19.8202 15.4403L22.4065 15.8046L23.4547 9.51427L24.1906 9.63715L23.1453 15.9072L23.2826 15.926L30.3276 18.1987L31.7907 10.746L32.5222 10.8906L31.2919 17.1563L40.5098 20.6333L41.4177 12.1614C38.2993 11.3604 35.2488 10.36 32.1246 9.49113C27.2786 8.14228 22.3256 7.56978 17.3639 6.84403V6.84259Z" fill="#B5C2EF"/>
<path d="M50.3879 10.7994C50.3171 10.7719 50.2462 10.7445 50.1754 10.717C46.4296 9.25105 35.5881 6.35239 28.0068 5.34039C22.4422 4.59296 16.4483 3.55349 13.5728 3.03882C13.5106 3.54193 13.4499 4.0378 13.3906 4.52646C16.0175 5.02378 18.6487 5.50087 21.303 5.85507C25.7284 6.44637 30.1739 7.05935 34.4735 8.30122C39.1316 9.64718 43.6523 11.1059 48.4333 11.9791C49.0853 12.0977 49.7359 12.2206 50.3879 12.342V10.7994Z" fill="#B5C2EF"/>
<path d="M6.72304 3.27585C2.26011 2.49083 -1.88331 0.877412 -6.26382 -0.186635C-8.68684 -0.775041 -11.1402 -1.19719 -13.582 -1.67139V-0.00881445C-12.1334 0.267317 -10.6834 0.543452 -9.24055 0.857172C-4.63161 1.86194 -0.291574 3.62282 4.37375 4.46278C6.5828 4.86035 8.78463 5.30419 10.9893 5.72923C11.053 5.19721 11.1195 4.65506 11.1874 4.10135C9.70121 3.81799 8.21502 3.53463 6.72448 3.27296L6.72304 3.27585Z" fill="#6D84FF"/>
<path d="M50.3892 12.3419C49.7372 12.2205 49.0866 12.0976 48.4346 11.979C43.6536 11.1058 39.1329 9.64565 34.4748 8.30113C30.1752 7.05926 25.7297 6.44483 21.3043 5.85498C18.65 5.50078 16.0202 5.02369 13.3919 4.52637C13.324 5.07718 13.2589 5.61788 13.1953 6.14702C14.5818 6.40002 15.9696 6.64 17.3633 6.84385C22.3264 7.5696 27.278 8.1421 32.1241 9.49095C35.2482 10.3613 38.2987 11.3603 41.4171 12.1612L41.4258 12.086L42.1674 12.1655L42.1486 12.3477C43.2084 12.6079 44.2767 12.8436 45.361 13.0387C47.0395 13.3409 48.7151 13.6546 50.3892 13.9727V12.3433V12.3419Z" fill="#6D84FF"/>
<path d="M41.5893 -60.1144L41.9262 -60.7505H38.3293L38.6473 -60.4295L46.9501 -52.0632L46.9356 -52.0545L44.4822 -50.5799L34.5155 -60.7505H31.9031L35.1053 -57.4817L35.7371 -56.8369L21.8987 -42.7195L22.6967 -41.9345L28.7167 -48.0412C29.2834 -47.0827 30.4385 -45.1266 31.7382 -42.9133L22.8182 -37.5482L10.2549 -49.7573L12.8673 -54.8708L18.5808 -60.7505H17.0194L11.9493 -55.5343L9.40339 -50.5495C8.79764 -51.1784 7.9172 -52.3364 7.93744 -53.6087C7.93744 -54.0829 8.04586 -54.5845 8.33356 -55.1281C10.0106 -58.2971 10.0294 -58.4287 10.2983 -58.965C10.4544 -59.299 10.4992 -59.6749 10.505 -60.139C10.505 -60.3341 10.492 -60.5409 10.4631 -60.7505H9.32966C9.36725 -60.5466 9.38604 -60.3341 9.3846 -60.139C9.39038 -59.8007 9.3152 -59.4855 9.29496 -59.4652C9.00293 -58.8826 9.02317 -58.8291 7.3418 -55.6515C6.9717 -54.9561 6.81556 -54.2578 6.81556 -53.6087C6.84592 -51.6049 8.18032 -50.1418 8.86847 -49.5086L5.925 -43.746L-2.49051 -48.1757L3.18248 -60.7505H1.54593L-13.582 -27.2142V-23.584L-11.3932 -28.4359L-5.06099 -25.6991L-6.00504 -21.9229L-13.582 -18.0672V-13.9845L7.51384 -26.7082L9.05064 -27.4904L10.5282 -25.2061L9.91373 -17.4398L5.69513 -18.9737L5.31202 -17.9212L9.8212 -16.2817L9.57977 -13.2255L-13.582 -12.6472V-10.7808L9.4164 -11.3533L8.28585 0.595535L-13.582 -5.36226V-4.20135L11.371 2.59641C11.3088 3.1053 11.2467 3.60985 11.186 4.10573C11.118 4.65799 11.053 5.20158 10.9879 5.7336C10.6351 8.64672 10.3359 11.21 10.1349 13.0619C9.64916 17.561 8.54897 21.7883 7.56878 24.8792C7.07868 26.4261 6.62039 27.6882 6.28498 28.56C5.94958 29.4318 5.74429 29.8987 5.74429 29.9002C5.74429 29.9002 5.06625 31.4269 3.95883 33.9366L3.9863 33.7111L-13.582 31.5223V32.6499L-5.53229 33.6518L-5.87059 43.1097L-13.582 41.3459V42.4938L-1.06792 45.3578C-2.06402 47.6304 -3.11216 50.0245 -4.16609 52.4447L-9.91425 49.5315L-10.4203 50.5305L-4.61426 53.474C-5.16508 54.739 -5.7159 56.0069 -6.26238 57.2647L-13.582 54.0826V55.3028L-11.0781 56.3915L-12.6452 60.2718L-11.6072 60.691L-10.0501 56.8382L-6.70621 58.2911C-7.34666 59.7686 -7.9741 61.2259 -8.58419 62.6427H-6.14672C-6.09467 62.5198 -6.04118 62.3984 -5.98914 62.2755L-5.36748 62.6427H-3.16565L-5.54097 61.2404C-3.92465 57.4945 -2.20859 53.5535 -0.564814 49.7961C0.228884 47.9817 1.00523 46.2107 1.74544 44.5236L9.84 46.3727L8.32923 60.8992L-0.385545 56.3871L-0.728179 57.0507L8.26561 61.7074L8.23381 62.6442H8.9798L8.99859 62.0876L10.0728 62.6442H11.6963L9.03907 61.2679L9.73012 54.6248L21.9016 60.5421L21.1628 62.6442H21.9522L22.5767 60.8703L26.2257 62.6442H27.9331L22.8269 60.1619L25.7804 51.7666L34.9506 55.1279L31.5966 62.6442H32.4148L33.6957 59.7715L34.2509 60.0506L39.4034 62.6427H41.0645L34.5661 59.3725L33.9993 59.0877L35.6576 55.3693L45.2412 58.4025L43.3849 62.6413H44.608L46.3154 58.7422L48.5172 59.439C48.2859 60.4192 47.9519 61.5035 47.5515 62.6413H48.737C49.0796 61.638 49.3702 60.6722 49.587 59.7773L50.3894 60.0318V59.2496L46.6161 58.0555L48.004 54.8865L50.3894 55.725V54.9342L48.3047 54.2012L50.0135 50.2978L50.3894 50.4366V46.0329L49.4988 48.5181L45.3554 46.9958L50.3894 31.7738V28.2087L44.3044 46.6097L42.8153 46.0633L46.3674 35.8782L45.3092 35.5096L41.7628 45.6758L40.3677 45.164L41.2048 21.69L50.388 25.1539V24.3559L41.2337 20.902V20.8587L42.1474 12.3434L42.1662 12.1613L41.4245 12.0817L41.4159 12.1569L40.5079 20.6288L31.2901 17.1519L32.5204 10.8861L31.7888 10.743L30.3258 18.1957L23.2808 15.923L23.1435 15.9042L24.1887 9.63415L23.4529 9.51126L22.4047 15.8016L19.8183 15.4372L19.8371 15.352L20.7089 8.62504L19.9701 8.52818L19.0998 15.2334L19.0781 15.3317L15.4667 14.8243L16.6002 8.2665L15.8643 8.13927L12.9989 24.7043L12.5016 35.5153L12.3078 36.283L6.18957 34.4253C7.18855 32.1627 7.79287 30.8037 7.79431 30.798C7.81744 30.7344 11.3392 22.7077 12.3613 13.299C12.5565 11.4904 12.85 8.98936 13.1941 6.14275C13.2577 5.61362 13.3242 5.07291 13.3907 4.52209C13.4499 4.03345 13.5107 3.53757 13.5728 3.03446C16.4484 3.54913 22.4423 4.59004 28.0069 5.33604C35.5882 6.34804 46.4296 9.24814 50.1754 10.7126C50.2463 10.7401 50.3171 10.7676 50.388 10.7951V9.59656C46.885 8.26794 38.5172 5.99094 31.4057 4.73606L32.9512 -2.79467L29.0275 -3.25151L30.5094 -8.20453L30.4241 -11.8795L33.7738 -11.9619L32.5695 -4.73337L33.6741 -4.54977L34.9145 -11.9909L40.7797 -12.1369L36.5004 3.23252L37.5789 3.53323L41.9493 -12.1658L46.126 -12.2699L42.8384 -1.97639L42.8298 -1.97929L40.7624 4.5192L40.7031 4.70425L41.7686 5.044L43.5671 -0.585613L50.388 1.49043V0.32085L47.339 -0.6073L43.9068 -1.65255L43.93 -1.72339L44.3695 -3.09827L47.3086 -12.3017L50.388 -12.3783V-14.2447L49.5625 -14.2245L49.6304 -16.3858L49.8632 -17.0234L50.3894 -16.9251V-18.0643L50.2506 -18.0903L50.3894 -18.4706V-19.4985L49.668 -19.7601L48.5172 -16.5969L48.4435 -14.1956L45.3424 -14.119L42.1431 -17.8923L48.2266 -31.6092L50.3909 -30.6507V-31.8752L48.6806 -32.6328L50.3909 -36.4899V-39.2513L48.3799 -34.7161L47.5471 -34.8765L49.8661 -39.9553L48.8468 -40.4208L46.4643 -35.2047L42.4582 -37.5916L41.8843 -36.6302L45.9944 -34.1811L43.6683 -29.0864C41.7614 -30.2459 39.2111 -32.0733 38.2772 -33.8342C37.6715 -34.9503 36.4469 -37.0798 35.0909 -39.4088L46.4238 -45.9319L50.3909 -41.868V-44.5382L45.8253 -49.2151L48.3018 -50.7042L50.3909 -48.5747V-51.2391L49.9557 -51.683L50.3909 -51.9389V-54.1031L48.6054 -53.0535L41.5922 -60.1202L41.5893 -60.1144ZM-0.611076 44.314L-4.92075 43.328L-4.76028 43.3338L-4.41909 33.7906L3.5815 34.7867C2.4683 37.308 1.00668 40.6245 -0.612522 44.314H-0.611076ZM25.3251 50.8052L21.8336 49.5258L21.5778 50.2269L25.0778 51.5093L22.1503 59.8323L14.9188 56.3163L16.3197 53.3945L15.6474 53.0721L14.2465 55.9895L9.81108 53.834L10.5585 46.6575L12.9121 47.7866L12.6447 49.1195C12.571 49.2554 12.4307 49.5633 12.4293 49.9913C12.4206 50.6043 12.7517 51.4167 13.8085 52.1208C14.8147 52.8003 16.4758 53.435 19.2415 53.9048L18.1124 57.8574L18.8295 58.0627L20.0699 53.7212L22.4307 47.9629L23.1695 46.1601L23.1464 46.15L26.5423 47.3427L25.9048 49.1557L25.3251 50.8038V50.8052ZM13.1753 49.9927C13.1753 49.825 13.2129 49.6833 13.249 49.5879C13.2663 49.5402 13.2851 49.5041 13.2967 49.4809C13.3083 49.4607 13.3097 49.4607 13.3083 49.4607L13.3502 49.3971L13.8504 46.8974C14.0991 46.4637 14.3651 46.1066 14.6441 45.8103C15.5882 44.8041 16.6739 44.5221 17.6873 44.5135C18.4579 44.5135 19.1764 44.6913 19.6983 44.872C20.2217 45.0527 20.5296 45.2277 20.5325 45.2248L20.5585 45.2392L22.4683 45.91L20.2289 51.3734L19.4844 53.1907C16.7071 52.7309 15.1067 52.0991 14.2292 51.5035C13.3227 50.879 13.1854 50.3527 13.1782 49.9913L13.1753 49.9927ZM35.26 54.4455L26.0262 51.0611L26.6117 49.3985L27.2479 47.5914L35.3207 50.4293L36.8922 50.9816L35.26 54.4455ZM20.3778 38.1292L21.6862 31.4659L27.3115 34.2503L24.7887 39.7195L24.6456 40.0289L20.2665 38.6988L20.3778 38.1292ZM19.6665 37.8733L19.5465 38.4805L15.9033 37.3745L16.1621 36.6097L18.4449 29.8611L20.9922 31.1218L19.6665 37.8733ZM33.7695 36.4117L35.3294 32.0442L39.9542 34.2879L40.015 34.1636L39.8357 39.2019L33.7709 36.4117H33.7695ZM39.8053 40.0101L39.642 44.5814L30.9937 41.956L28.9234 41.3271L28.9538 41.2201L30.521 35.738L39.8039 40.0086L39.8053 40.0101ZM33.0885 36.0994L30.7407 35.0195L32.2327 30.5421L34.6528 31.716L33.0885 36.098V36.0994ZM30.0598 34.7057L28.2194 33.8585L29.068 29.0053L31.5561 30.2125L30.0598 34.7043V34.7057ZM27.5196 33.5217L21.8336 30.7069L22.756 26.0098L23.0668 26.0922L28.3697 28.6655L27.5196 33.5202V33.5217ZM25.4928 39.9739L27.9852 34.5727L29.8371 35.4243L28.2526 40.9686L28.2121 41.1117L25.367 40.2472L25.4942 39.9725L25.4928 39.9739ZM28.6415 42.4128L37.8088 45.1958L39.3904 45.6758L37.2117 50.3021L35.6431 49.7513L27.4748 46.8801L28.6401 42.4114L28.6415 42.4128ZM45.5419 57.7157L35.9713 54.687L37.5992 51.2303L46.9428 54.5135L45.5419 57.7143V57.7157ZM48.9596 49.9103L47.2435 53.8297L37.9187 50.5522L39.8039 46.5476L48.9582 49.9103H48.9596ZM31.1469 17.8964L40.4704 21.4138L40.0395 33.5015L35.6041 31.3488L38.468 25.0267L37.7886 24.7187L34.9347 31.022L32.5045 29.8424L35.4812 23.4118L34.8046 23.0981L31.8337 29.5156L29.2053 28.2405L29.9137 24.1896L31.1498 17.895L31.1469 17.8964ZM23.022 16.6415L23.1174 16.6545L30.1827 18.933L29.4381 22.7294L22.1401 21.9314L23.022 16.6415ZM15.3409 15.5616L18.9205 16.0647L17.735 21.5599L18.4637 21.7174L19.6593 16.1688L22.2804 16.5374L21.2713 22.5878L29.2906 23.4653L29.175 24.0537L28.5013 27.9008L23.3285 25.3895L14.0644 22.9203L15.3366 15.5601L15.3409 15.5616ZM13.7449 24.791L13.94 23.6605L22.0346 25.8189L21.1426 30.3657L15.2817 27.4641L13.3834 32.6572L13.7449 24.791ZM13.2461 35.6252L13.2967 34.5149L13.4745 34.58L15.6951 28.5022L17.7697 29.5286L15.4595 36.3582L15.1891 37.1591L13.3357 36.5967L13.0249 36.5028L13.2461 35.6267V35.6252ZM12.7502 37.5885L12.9974 37.6637L27.9288 42.1974L26.7708 46.6358L20.8578 44.5583C20.6279 44.4383 19.308 43.7761 17.6873 43.7718C16.6247 43.7631 15.4176 44.0826 14.3766 45.0296C13.9372 45.43 13.528 45.9389 13.1709 46.5866L13.1435 46.6372L13.1391 46.6575L10.7465 45.5096L11.1397 43.9525L11.7006 41.7348L12.7488 37.5914L12.7502 37.5885ZM12.036 37.3716L10.0366 45.2696L2.20228 43.4798C3.35596 40.8529 4.40989 38.4646 5.2831 36.4869C5.44069 36.1298 5.59104 35.79 5.73706 35.4604L12.036 37.3731V37.3716ZM29.5147 -48.8927L36.5207 -56.0389L42.8399 -49.591L32.6982 -43.4915C31.2583 -45.9449 29.9947 -48.0831 29.5147 -48.8927ZM23.2027 -35.6037L30.0077 -28.8797L25.007 -13.6086L19.094 -13.4612L19.626 -19.8425L16.6146 -21.0136C16.7389 -21.9793 16.817 -22.5836 16.8344 -22.7195C16.8633 -22.8756 16.9442 -23.3947 16.9457 -24.1262C16.9442 -25.1743 16.7794 -26.6822 15.9597 -28.1641C15.7154 -28.605 15.2397 -29.4218 14.634 -30.4526L23.2027 -35.6052V-35.6037ZM18.4391 -19.1023L17.9664 -13.4337L15.633 -13.3759C15.9626 -15.9637 16.2532 -18.2204 16.4657 -19.87L18.4391 -19.1023ZM9.72145 -48.7164L21.825 -36.954L13.6856 -32.0588C11.0501 -36.5131 7.23771 -42.867 7.23337 -42.8742L7.07145 -43.1431L6.91532 -43.2255L9.72 -48.7164H9.72145ZM-10.9335 -29.458L-3.41287 -46.1314L3.29091 -42.6024L-4.60703 -26.7227L-10.9335 -29.4565V-29.458ZM-4.68366 -22.5966L-4.02007 -25.2495L-1.55947 -24.1855L-4.68366 -22.5952V-22.5966ZM6.61316 -28.3448L-0.262659 -24.8462L-3.57768 -26.2789L4.28122 -42.082L5.47394 -41.4545C5.96837 -40.6305 7.52975 -38.0253 9.1981 -35.2264C9.98457 -33.9093 10.7942 -32.546 11.5286 -31.3085L6.61461 -28.3448H6.61316ZM11.5084 1.47308L9.3817 0.893356L10.5426 -11.3822L13.1304 -11.4473C12.6158 -7.39638 12.036 -2.79611 11.5098 1.47308H11.5084ZM13.3675 -13.3195L10.7045 -13.253L11.6732 -25.4953L10.0525 -28.0007L12.6895 -29.3423C13.2967 -28.3101 13.7694 -27.4962 14.0008 -27.0783C14.5631 -26.0721 14.7063 -24.9358 14.7034 -24.1276C14.7034 -23.8052 14.6817 -23.5392 14.6629 -23.36C14.6528 -23.2689 14.6427 -23.2024 14.6354 -23.159C14.6282 -23.1171 14.6268 -23.1142 14.6282 -23.1142L14.6195 -23.0752L14.6152 -23.039C14.6152 -23.039 14.0788 -18.9028 13.3675 -13.3209V-13.3195ZM13.7087 1.92414C14.115 -1.36775 14.553 -4.86927 14.9708 -8.16839C15.1154 -9.3105 15.2571 -10.4266 15.393 -11.5022L17.8088 -11.5629L16.6421 2.43882C15.4768 2.23931 14.4764 2.06149 13.7073 1.92414H13.7087ZM27.897 -3.38018L27.8637 -3.38452L26.152 2.45473L26.1448 2.47786V2.48075L27.216 2.79881V2.79591L27.2204 2.7829L28.6979 -2.16L31.6052 -1.8217L30.2983 4.55101C29.5639 4.43102 28.8454 4.32114 28.1529 4.22861C24.5473 3.74575 20.7508 3.1371 17.7495 2.62821L18.9335 -11.5904L27.3216 -11.8L26.9688 -8.76547L25.5824 -4.05099L26.6566 -3.73438L28.069 -8.53994L28.4507 -11.8275L29.2082 -11.8463L29.3008 -11.8275L29.3817 -8.35344L27.8941 -3.38018H27.897ZM43.901 -14.0799L26.191 -13.639L30.8939 -28.0007L38.3047 -20.6767L43.901 -14.0799ZM47.0628 -33.8255L47.91 -33.6621L45.4335 -28.0802C45.3048 -28.1482 45.1588 -28.2262 44.9911 -28.3173C44.8798 -28.3766 44.7612 -28.4417 44.6369 -28.511L47.0628 -33.824V-33.8255ZM44.1714 -27.4933C44.4909 -27.314 44.7656 -27.168 44.9781 -27.0567L41.3335 -18.8378L40.6091 -19.6922L44.1714 -27.4933ZM37.2912 -33.2949C38.2787 -31.4979 40.3128 -29.9278 42.1055 -28.7438C42.4842 -28.4951 42.8529 -28.2667 43.1984 -28.0585L39.8082 -20.6362L39.1258 -21.4415L33.1391 -27.3574L35.7385 -29.7948L34.9738 -30.6117L32.3411 -28.1453L30.4516 -30.0117L34.0716 -33.6318L33.2794 -34.424L29.655 -30.7996L24.1887 -36.2022L32.678 -41.3085C32.9685 -40.8112 33.262 -40.311 33.5512 -39.8136L30.5036 -38.06L31.0616 -37.0899L34.115 -38.8465C35.4696 -36.5189 36.6927 -34.3922 37.2883 -33.2964L37.2912 -33.2949ZM34.5241 -40.3702C34.2307 -40.8734 33.9343 -41.3794 33.6394 -41.8825L44.1786 -48.2205L45.6128 -46.7516L34.5241 -40.3688V-40.3702Z" fill="white"/>
</g>
</g>
<path d="M18.095 9.79785C16.551 9.79785 15.0703 10.4112 13.9785 11.503C12.8868 12.5947 12.2734 14.0755 12.2734 15.6194C12.2734 20.8589 18.095 24.934 18.095 24.934C18.095 24.934 23.9166 20.8589 23.9166 15.6194C23.9166 14.0755 23.3033 12.5947 22.2115 11.503C21.1197 10.4112 19.639 9.79785 18.095 9.79785ZM18.095 17.9481C17.6345 17.9481 17.1842 17.8115 16.8013 17.5556C16.4184 17.2997 16.1199 16.9361 15.9436 16.5106C15.7674 16.0851 15.7213 15.6168 15.8111 15.1651C15.901 14.7134 16.1228 14.2985 16.4484 13.9728C16.7741 13.6472 17.189 13.4254 17.6407 13.3355C18.0924 13.2457 18.5606 13.2918 18.9861 13.4681C19.4116 13.6443 19.7753 13.9428 20.0312 14.3257C20.2871 14.7087 20.4236 15.1589 20.4236 15.6194C20.4236 16.237 20.1783 16.8293 19.7416 17.266C19.3049 17.7027 18.7126 17.9481 18.095 17.9481Z" fill="#002DC9"/>
<path d="M18.0951 12.7088C17.5194 12.7088 16.9567 12.8795 16.478 13.1993C15.9993 13.5192 15.6262 13.9738 15.4059 14.5056C15.1856 15.0375 15.128 15.6228 15.2403 16.1874C15.3526 16.7521 15.6298 17.2707 16.0369 17.6778C16.444 18.0849 16.9626 18.3621 17.5273 18.4744C18.0919 18.5867 18.6772 18.5291 19.2091 18.3088C19.7409 18.0885 20.1955 17.7154 20.5154 17.2367C20.8352 16.758 21.0059 16.1953 21.0059 15.6196C21.0059 14.8476 20.6993 14.1072 20.1534 13.5613C19.6075 13.0154 18.8671 12.7088 18.0951 12.7088ZM18.0951 17.366C17.7497 17.366 17.4121 17.2636 17.1249 17.0717C16.8376 16.8798 16.6138 16.607 16.4816 16.2879C16.3494 15.9688 16.3148 15.6176 16.3822 15.2788C16.4496 14.9401 16.616 14.6289 16.8602 14.3846C17.1045 14.1404 17.4156 13.974 17.7544 13.9066C18.0932 13.8393 18.4444 13.8738 18.7635 14.006C19.0826 14.1382 19.3554 14.3621 19.5473 14.6493C19.7392 14.9365 19.8416 15.2741 19.8416 15.6196C19.8416 16.0828 19.6576 16.527 19.3301 16.8545C19.0026 17.182 18.5583 17.366 18.0951 17.366ZM18.0951 9.21582C16.3974 9.21775 14.7697 9.89304 13.5691 11.0936C12.3686 12.2941 11.6933 13.9218 11.6914 15.6196C11.6914 17.9045 12.7473 20.3263 14.7477 22.6236C15.6466 23.6618 16.6583 24.5965 17.764 25.4107C17.8619 25.4793 17.9785 25.5161 18.0981 25.5161C18.2176 25.5161 18.3342 25.4793 18.4321 25.4107C19.5358 24.5962 20.5455 23.6614 21.4426 22.6236C23.4401 20.3263 24.4989 17.9045 24.4989 15.6196C24.497 13.9218 23.8217 12.2941 22.6211 11.0936C21.4206 9.89304 19.7929 9.21775 18.0951 9.21582ZM18.0951 24.2064C16.8923 23.2604 12.8557 19.7856 12.8557 15.6196C12.8557 14.23 13.4077 12.8973 14.3903 11.9147C15.3729 10.9321 16.7056 10.3801 18.0951 10.3801C19.4847 10.3801 20.8174 10.9321 21.8 11.9147C22.7826 12.8973 23.3346 14.23 23.3346 15.6196C23.3346 19.7842 19.298 23.2604 18.0951 24.2064Z" fill="#002DC9"/>
</svg>
