<svg width="18" height="18" viewBox="0 0 18 18" fill="none" xmlns="http://www.w3.org/2000/svg">
<path d="M1.31007 2.3096C1.33433 1.77551 1.7744 1.35498 2.30904 1.35498H14.2502C14.8025 1.35498 15.2502 1.8027 15.2502 2.35498V12.8799C15.2502 13.0444 15.2908 13.2064 15.3684 13.3514L15.5761 13.7399C16.0794 14.6812 14.9554 15.6506 14.0983 15.0145L11.8251 13.3274C11.6527 13.1995 11.4438 13.1305 11.2291 13.1305H2.31027C1.77514 13.1305 1.33484 12.7092 1.31125 12.1745L1.08984 7.15764L1.31007 2.3096Z" fill="#98DFDF"/>
<path d="M16.0212 9.8338C16.0212 11.7698 16.0212 13.7057 16.0212 15.6452C16.0212 15.8346 15.9826 16.0029 15.8318 16.1292C15.6319 16.2975 15.3829 16.2975 15.1409 16.1186C14.3062 15.5119 13.4679 14.9052 12.6367 14.2914C12.5035 14.1932 12.3702 14.1476 12.2019 14.1476C9.45575 14.1511 6.70964 14.1546 3.96353 14.1476C2.19943 14.1476 0.733432 12.9692 0.351151 11.2437C0.29153 10.9806 0.270487 10.7036 0.266979 10.43C0.259965 8.35729 0.259965 6.28456 0.266979 4.20832C0.266979 2.34952 1.54359 0.841439 3.37433 0.532809C3.57774 0.497737 3.78817 0.490723 3.99509 0.490723C6.76225 0.490723 9.5294 0.490723 12.3001 0.490723C14.1624 0.490723 15.6599 1.7533 15.9756 3.59456C16.0141 3.8085 16.0212 4.02945 16.0212 4.24689C16.0212 6.10569 16.0212 7.96799 16.0212 9.82679V9.8338ZM14.9725 14.6982C14.9725 14.6316 14.9725 14.6071 14.9725 14.579C14.9725 11.0999 14.976 7.62078 14.9725 4.14168C14.9725 2.71076 13.7976 1.55339 12.3597 1.54989C9.56447 1.54638 6.76926 1.54989 3.97405 1.54989C2.48 1.54989 1.32264 2.70725 1.32264 4.20481C1.32264 6.28806 1.32264 8.37482 1.32264 10.4581C1.32264 10.6334 1.33666 10.8088 1.37174 10.9806C1.62776 12.2397 2.68341 13.106 3.96353 13.106C6.81135 13.106 9.66267 13.106 12.5105 13.106C12.6929 13.106 12.8507 13.1516 12.998 13.2638C13.2189 13.4322 13.4469 13.5935 13.6749 13.7583C14.0992 14.067 14.5236 14.3721 14.976 14.7017L14.9725 14.6982Z" fill="#98DFDF"/>
<path d="M8.15787 4.69931C9.45552 4.69931 10.7497 4.69931 12.0473 4.69931C12.4401 4.69931 12.6996 5.04652 12.5734 5.39724C12.4962 5.60767 12.3419 5.7234 12.121 5.74795C12.0719 5.75497 12.0228 5.74795 11.9737 5.74795C9.42045 5.74795 6.86373 5.74795 4.31052 5.74795C4.23336 5.74795 4.1562 5.74795 4.08255 5.73042C3.82302 5.66729 3.65468 5.4253 3.68273 5.16927C3.71079 4.90273 3.92823 4.70282 4.2053 4.69931C4.70332 4.69581 5.20133 4.69931 5.69935 4.69931C6.52003 4.69931 7.3407 4.69931 8.16138 4.69931H8.15787Z" fill="white"/>
<path d="M5.77346 8.90078C5.27194 8.90078 4.76691 8.90078 4.26538 8.90078C3.91817 8.90078 3.67969 8.68334 3.67969 8.37471C3.67969 8.06257 3.91817 7.85214 4.26538 7.84863C5.27545 7.84863 6.28902 7.84863 7.29908 7.84863C7.64278 7.84863 7.88127 8.07309 7.87776 8.38172C7.87425 8.68334 7.63577 8.89727 7.29908 8.89727C6.79054 8.89727 6.282 8.89727 5.77346 8.89727V8.90078Z" fill="white"/>
</svg>
