<svg width="21" height="20" viewBox="0 0 21 20" fill="none" xmlns="http://www.w3.org/2000/svg">
<path d="M12.5388 0.0291114C12.6743 0.0723644 12.8156 0.105056 12.9448 0.161385C13.4831 0.397265 13.7772 0.809678 13.8717 1.36191C13.9242 1.67122 13.9768 1.98053 14.0324 2.28933C14.1637 3.01558 14.8817 3.42447 15.6111 3.18407C15.9388 3.07593 16.2603 2.9502 16.5859 2.83553C17.3758 2.5579 18.1378 2.81591 18.5627 3.51299C19.1036 4.40119 19.6403 5.29139 20.1729 6.18412C20.5883 6.88019 20.4497 7.63209 19.8147 8.14911C19.55 8.36487 19.2764 8.56957 19.0122 8.78533C18.413 9.2757 18.414 10.0613 19.0154 10.5527C19.2843 10.7725 19.5637 10.9812 19.8326 11.2015C20.4407 11.7004 20.5862 12.4548 20.1902 13.1222C19.6472 14.0381 19.0978 14.9504 18.5401 15.8582C18.1404 16.5085 17.3815 16.766 16.6368 16.5176C16.3033 16.4064 15.9761 16.2782 15.6437 16.1635C14.8843 15.902 14.1664 16.3058 14.0288 17.0683C13.9652 17.4203 13.9116 17.7744 13.836 18.124C13.689 18.8014 13.074 19.2968 12.3518 19.3029C11.218 19.3129 10.0841 19.3134 8.95022 19.3029C8.17347 19.2953 7.56321 18.7501 7.43086 17.9771C7.37782 17.6678 7.32582 17.3585 7.27015 17.0497C7.13938 16.3214 6.42303 15.91 5.69513 16.1504C5.36741 16.2586 5.046 16.3838 4.72038 16.498C3.92736 16.7761 3.16636 16.5206 2.74254 15.825C2.19792 14.9318 1.65698 14.0361 1.12182 13.1378C0.713754 12.4533 0.857129 11.6994 1.48472 11.1884C1.74942 10.9731 2.02304 10.7679 2.28721 10.5522C2.88802 10.0623 2.88907 9.27268 2.29036 8.78433C2.02094 8.56454 1.74206 8.35582 1.47317 8.13553C0.862906 7.63561 0.715329 6.8822 1.11027 6.2158C1.65331 5.29995 2.20318 4.38761 2.75987 3.47929C3.16269 2.82245 3.92841 2.56495 4.67995 2.82044C5.00661 2.93159 5.32802 3.05632 5.65416 3.16898C6.4141 3.43151 7.13571 3.02916 7.27226 2.26922C7.33003 1.94784 7.37677 1.62495 7.44242 1.30508C7.58001 0.636163 7.99228 0.213188 8.69288 0.0572761C8.71756 0.0517438 8.74015 0.0371585 8.76378 0.0270996C10.0221 0.0270996 11.2805 0.0270996 12.5393 0.0270996L12.5388 0.0291114ZM2.46839 12.3648C3.00356 13.2525 3.53504 14.1311 4.0618 15.0118C4.11642 15.1033 4.17157 15.0907 4.25402 15.06C4.55285 14.9494 4.85378 14.8438 5.15471 14.7382C5.63263 14.5702 6.12263 14.5244 6.6226 14.6235C7.82422 14.8614 8.65402 15.7164 8.84098 16.8998C8.88825 17.2001 8.94549 17.4993 8.99696 17.79H12.3061C12.3592 17.4832 12.4143 17.187 12.4616 16.8897C12.7142 15.303 14.2194 14.2865 15.8175 14.6481C16.2224 14.7397 16.6106 14.9031 17.0008 15.047C17.1368 15.0973 17.2009 15.0822 17.276 14.9554C17.7633 14.1321 18.2612 13.3143 18.7549 12.4945C18.7801 12.4523 18.8011 12.408 18.8268 12.3587C18.5732 12.1586 18.3263 11.9629 18.0784 11.7683C16.6247 10.6281 16.6247 8.70889 18.0779 7.56972C18.3295 7.37257 18.58 7.1734 18.8342 6.97273C18.298 6.08303 17.7702 5.20992 17.246 4.3348C17.1972 4.25383 17.152 4.23773 17.0585 4.27294C16.7172 4.40018 16.3758 4.52893 16.0276 4.63656C14.4594 5.12039 12.794 4.1648 12.4973 2.61423C12.429 2.25815 12.3681 1.90106 12.3035 1.54297H8.99749C8.94497 1.84473 8.88877 2.14046 8.84203 2.4372C8.59257 4.0275 7.09737 5.04546 5.49451 4.68988C5.07699 4.59733 4.67732 4.42583 4.27345 4.28098C4.15949 4.24025 4.09857 4.24779 4.04132 4.35793C3.95729 4.52038 3.85488 4.67428 3.75982 4.83171C3.33127 5.54236 2.9022 6.25302 2.46839 6.97223C2.73729 7.18497 2.99936 7.39218 3.26142 7.59889C4.66051 8.70134 4.66051 10.6341 3.26142 11.7386C2.99936 11.9453 2.73729 12.1525 2.46892 12.3648H2.46839Z" fill="white"/>
<path d="M10.5418 5.95329C12.6462 5.8698 14.4334 7.48676 14.5285 9.56089C14.6209 11.5807 12.9177 13.3023 10.7461 13.3838C8.6422 13.4627 6.85027 11.8332 6.76834 9.7666C6.68851 7.74728 8.37803 6.03979 10.5413 5.95379L10.5418 5.95329ZM12.9587 9.67053C12.9608 8.46548 11.9241 7.46664 10.661 7.45658C9.39846 7.44652 8.34127 8.45291 8.33917 9.66601C8.33707 10.8701 9.37536 11.8704 10.6363 11.8805C11.8983 11.8905 12.9561 10.8836 12.9582 9.67053H12.9587Z" fill="white"/>
</svg>
