<svg width="20" height="20" viewBox="0 0 20 20" fill="none" xmlns="http://www.w3.org/2000/svg">
<path d="M14.6105 10.3601C14.8805 10.5325 15.1505 10.6953 15.4105 10.8676C17.8105 12.5148 19.1305 14.7557 19.4305 17.5616C19.4605 17.801 19.4905 18.0404 19.4905 18.2798C19.4905 18.7491 19.1405 19.1034 18.6705 19.1417C18.2205 19.18 17.8605 18.9119 17.7805 18.4331C17.7205 18.0787 17.7405 17.7148 17.6905 17.3605C17.3205 14.7461 15.8705 12.85 13.4605 11.6242C13.3405 11.5571 13.1105 11.5859 12.9805 11.6625C11.9105 12.2275 10.7705 12.5244 9.54047 12.4573C8.59047 12.3999 7.70047 12.1413 6.88047 11.6721C6.67047 11.5476 6.50047 11.538 6.28047 11.6625C3.80047 12.9745 2.38047 14.976 2.07047 17.6765C2.05047 17.8872 2.07047 18.0979 2.07047 18.3086C2.05047 18.7778 1.73047 19.1034 1.25047 19.1226C0.770469 19.1417 0.400469 18.8544 0.370469 18.3852C0.310469 17.4467 0.500469 16.5369 0.780469 15.6463C1.49047 13.4533 2.89047 11.7583 4.91047 10.542C5.01047 10.4846 5.11047 10.408 5.21047 10.3409C2.87047 7.40095 3.73047 4.05876 5.99047 2.22007C8.30047 0.343081 11.5005 0.352658 13.8305 2.22007C15.8005 3.80019 17.1605 7.27646 14.6105 10.3601ZM14.2705 6.64441C14.3505 4.31732 12.2505 2.44033 9.93047 2.45948C7.42047 2.47864 5.53047 4.31732 5.57047 6.71145C5.61047 9.07684 7.51047 10.8389 9.85047 10.8293C12.4305 10.8198 14.3105 9.01938 14.2805 6.64441H14.2705Z" fill="white"/>
</svg>
