<svg width="17" height="21" viewBox="0 0 17 21" fill="none" xmlns="http://www.w3.org/2000/svg">
<path d="M15.0978 20.1744H2.71923C2.70275 20.1644 2.68788 20.1479 2.6702 20.1448C1.62054 19.9635 0.981172 19.0857 0.984387 18.1036C0.999658 13.4027 0.990817 8.70186 0.991621 4.00101C0.991621 2.83378 1.8512 2.00059 3.06885 1.9852C3.41043 1.98097 3.75201 1.98443 4.0936 1.98443C4.37369 1.98443 4.65379 1.98443 4.96001 1.98443C4.96001 1.73582 4.93389 1.50338 4.96805 1.27901C4.99658 1.09083 5.06329 0.891862 5.1734 0.73677C5.25819 0.616699 5.43622 0.557049 5.57285 0.470459C7.79676 0.470459 10.0207 0.470459 12.2446 0.470459C12.724 0.627475 12.9233 0.953822 12.8896 1.43026C12.8771 1.60728 12.8875 1.78585 12.8875 1.98443C12.9796 1.98443 13.0511 1.98443 13.1226 1.98443C13.6647 1.98443 14.2073 1.98559 14.7494 1.98443C15.2252 1.98328 15.6632 2.09873 16.0434 2.37774C16.6104 2.79414 16.8579 3.3564 16.8575 4.03218C16.8563 7.63469 16.8571 11.2368 16.8571 14.8393C16.8571 15.9481 16.8588 17.0572 16.8563 18.1659C16.8547 18.8348 16.6048 19.4051 16.0233 19.7865C15.7504 19.9654 15.4084 20.0482 15.0978 20.1744ZM4.96001 3.5238H4.71849C4.20933 3.5238 3.70017 3.5238 3.19141 3.5238C2.71762 3.5238 2.59867 3.63849 2.59867 4.09414C2.59867 8.75074 2.59867 13.4073 2.59867 18.0639C2.59867 18.5234 2.714 18.635 3.1886 18.635C7.01353 18.635 10.8381 18.635 14.663 18.635C15.1211 18.635 15.2497 18.5134 15.2497 18.077C15.2497 16.1786 15.2497 14.2798 15.2497 12.3813C15.2497 9.60394 15.2497 6.82691 15.2497 4.0495C15.2497 3.66504 15.1054 3.52573 14.7084 3.52419C14.1659 3.52265 13.6234 3.52342 13.0808 3.52419C13.0222 3.52419 12.9635 3.53073 12.8879 3.53535C12.8879 3.76972 12.89 3.99293 12.8879 4.21614C12.8827 4.71605 12.5572 5.04239 12.0368 5.04355C9.96038 5.04778 7.88396 5.04778 5.80714 5.04355C5.29356 5.04239 4.97207 4.72528 4.96162 4.23345C4.9568 4.00947 4.96081 3.7855 4.96081 3.5238H4.96001ZM11.2668 3.49532V2.02099H6.57871V3.49532H11.2668Z" fill="black"/>
<path d="M7.86968 12.9967C7.94403 12.9039 7.98301 12.8424 8.03485 12.7927C9.17051 11.7032 10.309 10.6164 11.443 9.5254C11.6954 9.28256 11.9807 9.16826 12.3324 9.27602C12.8688 9.44035 13.0601 10.0584 12.7077 10.479C12.6575 10.5387 12.6004 10.5937 12.5437 10.648C11.2084 11.9272 9.87297 13.206 8.53718 14.4849C8.07343 14.929 7.64585 14.9294 7.1829 14.4864C6.53831 13.8699 5.89333 13.2541 5.25115 12.6357C4.9594 12.3548 4.88425 12.0346 5.02771 11.7259C5.26079 11.2249 5.92025 11.1148 6.35185 11.5154C6.80394 11.9349 7.24439 12.3659 7.68844 12.7931C7.73988 12.8427 7.78409 12.8997 7.86968 12.9963V12.9967Z" fill="black"/>
</svg>
