<svg width="14" height="12" viewBox="0 0 14 12" fill="none" xmlns="http://www.w3.org/2000/svg">
<path d="M13.6257 1.50234C13.1245 1.73018 12.5842 1.8799 12.0244 1.9515C12.5972 1.6065 13.0399 1.0597 13.2482 0.402235C12.7079 0.727711 12.109 0.955544 11.4776 1.08573C10.9633 0.525916 10.2408 0.200439 9.42058 0.200439C7.89085 0.200439 6.64102 1.45027 6.64102 2.99303C6.64102 3.21435 6.66706 3.42916 6.71262 3.63096C4.39523 3.51379 2.33171 2.40066 0.958203 0.714692C0.717351 1.12479 0.580651 1.6065 0.580651 2.11424C0.580651 3.08416 1.06887 3.94342 1.82397 4.43163C1.36179 4.43163 0.932165 4.30144 0.554613 4.10615V4.12568C0.554613 5.47966 1.51802 6.61232 2.79389 6.86619C2.38426 6.97829 1.95422 6.99389 1.53755 6.91176C1.71435 7.46668 2.06062 7.95225 2.52766 8.3002C2.99471 8.64814 3.55905 8.84098 4.14136 8.8516C3.15428 9.63303 1.93072 10.0554 0.671784 10.0493C0.45046 10.0493 0.229136 10.0363 0.0078125 10.0103C1.24462 10.8045 2.71577 11.2666 4.29108 11.2666C9.42058 11.2666 12.2392 7.0094 12.2392 3.3185C12.2392 3.19482 12.2392 3.07765 12.2327 2.95397C12.7795 2.5634 13.2482 2.06867 13.6257 1.50234Z" fill="#59D7FF"/>
</svg>
