                <svg width="122" height="33" viewBox="0 0 122 33" fill="none" xmlns="http://www.w3.org/2000/svg">
                    <rect x="0.529297" y="0.138916" width="120.525" height="32.0906" rx="7" fill="#36B933" fill-opacity="0.12"/>
                    <path d="M48.6012 10.5477H50.3626V18.2011C50.3626 19.0155 50.1713 19.7371 49.7887 20.3659C49.4061 20.9909 48.8683 21.4833 48.1751 21.8432C47.4819 22.1992 46.6694 22.3773 45.7376 22.3773C44.8095 22.3773 43.9989 22.1992 43.3058 21.8432C42.6126 21.4833 42.0747 20.9909 41.6921 20.3659C41.3095 19.7371 41.1183 19.0155 41.1183 18.2011V10.5477H42.8739V18.0591C42.8739 18.5856 42.9895 19.0534 43.2205 19.4625C43.4554 19.8716 43.7868 20.1936 44.2148 20.4284C44.6429 20.6595 45.1504 20.775 45.7376 20.775C46.3285 20.775 46.8379 20.6595 47.266 20.4284C47.6978 20.1936 48.0273 19.8716 48.2546 19.4625C48.4857 19.0534 48.6012 18.5856 48.6012 18.0591V10.5477ZM52.7788 25.4568V13.4568H54.4379V14.8716H54.5799C54.6784 14.6898 54.8204 14.4795 55.006 14.2409C55.1916 14.0023 55.4492 13.7939 55.7788 13.6159C56.1083 13.4341 56.5439 13.3432 57.0856 13.3432C57.7901 13.3432 58.4189 13.5212 58.9719 13.8773C59.525 14.2333 59.9587 14.7466 60.2731 15.417C60.5913 16.0875 60.7504 16.8943 60.7504 17.8375C60.7504 18.7807 60.5932 19.5894 60.2788 20.2636C59.9644 20.9341 59.5326 21.4511 58.9833 21.8148C58.4341 22.1746 57.8072 22.3545 57.1026 22.3545C56.5723 22.3545 56.1386 22.2655 55.8015 22.0875C55.4682 21.9095 55.2068 21.7011 55.0174 21.4625C54.828 21.2239 54.6822 21.0117 54.5799 20.8261H54.4776V25.4568H52.7788ZM54.4435 17.8204C54.4435 18.4341 54.5326 18.972 54.7106 19.4341C54.8886 19.8962 55.1462 20.2579 55.4833 20.5193C55.8204 20.7769 56.2333 20.9057 56.7219 20.9057C57.2295 20.9057 57.6538 20.7712 57.9947 20.5023C58.3356 20.2295 58.5932 19.8602 58.7674 19.3943C58.9454 18.9284 59.0344 18.4038 59.0344 17.8204C59.0344 17.2447 58.9473 16.7276 58.7731 16.2693C58.6026 15.811 58.3451 15.4492 58.0004 15.1841C57.6594 14.9189 57.2333 14.7864 56.7219 14.7864C56.2295 14.7864 55.8129 14.9132 55.4719 15.167C55.1348 15.4208 54.8791 15.775 54.7049 16.2295C54.5307 16.6841 54.4435 17.2144 54.4435 17.8204ZM65.9208 22.3545C65.2163 22.3545 64.5875 22.1746 64.0344 21.8148C63.4852 21.4511 63.0534 20.9341 62.739 20.2636C62.4284 19.5894 62.2731 18.7807 62.2731 17.8375C62.2731 16.8943 62.4303 16.0875 62.7447 15.417C63.0629 14.7466 63.4985 14.2333 64.0515 13.8773C64.6045 13.5212 65.2314 13.3432 65.9322 13.3432C66.4738 13.3432 66.9094 13.4341 67.239 13.6159C67.5723 13.7939 67.8299 14.0023 68.0117 14.2409C68.1973 14.4795 68.3413 14.6898 68.4435 14.8716H68.5458V10.5477H70.2447V22.1841H68.5856V20.8261H68.4435C68.3413 21.0117 68.1935 21.2239 68.0004 21.4625C67.811 21.7011 67.5496 21.9095 67.2163 22.0875C66.8829 22.2655 66.4511 22.3545 65.9208 22.3545ZM66.2958 20.9057C66.7844 20.9057 67.1973 20.7769 67.5344 20.5193C67.8754 20.2579 68.1329 19.8962 68.3072 19.4341C68.4852 18.972 68.5742 18.4341 68.5742 17.8204C68.5742 17.2144 68.4871 16.6841 68.3129 16.2295C68.1386 15.775 67.8829 15.4208 67.5458 15.167C67.2087 14.9132 66.792 14.7864 66.2958 14.7864C65.7844 14.7864 65.3583 14.9189 65.0174 15.1841C64.6765 15.4492 64.4189 15.811 64.2447 16.2693C64.0742 16.7276 63.989 17.2447 63.989 17.8204C63.989 18.4038 64.0761 18.9284 64.2504 19.3943C64.4246 19.8602 64.6822 20.2295 65.0231 20.5023C65.3678 20.7712 65.792 20.9057 66.2958 20.9057ZM75.2092 22.3773C74.6561 22.3773 74.1561 22.275 73.7092 22.0704C73.2622 21.8621 72.908 21.561 72.6467 21.167C72.3891 20.7731 72.2603 20.2901 72.2603 19.7182C72.2603 19.2257 72.355 18.8204 72.5444 18.5023C72.7338 18.1841 72.9895 17.9322 73.3114 17.7466C73.6334 17.561 73.9933 17.4208 74.391 17.3261C74.7887 17.2314 75.194 17.1595 75.6069 17.1102C76.1296 17.0496 76.5539 17.0004 76.8796 16.9625C77.2054 16.9208 77.4421 16.8545 77.5898 16.7636C77.7376 16.6727 77.8114 16.525 77.8114 16.3204V16.2807C77.8114 15.7845 77.6713 15.4 77.391 15.1273C77.1145 14.8545 76.7016 14.7182 76.1523 14.7182C75.5804 14.7182 75.1296 14.8451 74.8001 15.0989C74.4743 15.3489 74.2489 15.6273 74.1239 15.9341L72.5273 15.5704C72.7167 15.0401 72.9933 14.6121 73.3569 14.2864C73.7243 13.9568 74.1467 13.7182 74.6239 13.5704C75.1012 13.4189 75.6031 13.3432 76.1296 13.3432C76.4781 13.3432 76.8474 13.3848 77.2376 13.4682C77.6315 13.5477 77.9989 13.6954 78.3398 13.9114C78.6845 14.1273 78.9667 14.436 79.1864 14.8375C79.4061 15.2352 79.516 15.7523 79.516 16.3886V22.1841H77.8569V20.9909H77.7887C77.6789 21.2106 77.5141 21.4265 77.2944 21.6386C77.0747 21.8507 76.7925 22.0269 76.4478 22.167C76.1031 22.3072 75.6902 22.3773 75.2092 22.3773ZM75.5785 21.0136C76.0482 21.0136 76.4497 20.9208 76.783 20.7352C77.1201 20.5496 77.3758 20.3072 77.5501 20.0079C77.7281 19.7049 77.8171 19.3811 77.8171 19.0364V17.9114C77.7565 17.972 77.6391 18.0288 77.4648 18.0818C77.2944 18.1311 77.0993 18.1746 76.8796 18.2125C76.6599 18.2466 76.4459 18.2788 76.2376 18.3091C76.0292 18.3356 75.855 18.3583 75.7148 18.3773C75.3853 18.4189 75.0842 18.489 74.8114 18.5875C74.5425 18.686 74.3266 18.828 74.1637 19.0136C74.0046 19.1954 73.9251 19.4379 73.9251 19.7409C73.9251 20.1614 74.0804 20.4795 74.391 20.6954C74.7016 20.9076 75.0974 21.0136 75.5785 21.0136ZM85.8526 13.4568V14.8204H81.0856V13.4568H85.8526ZM82.364 11.3659H84.0629V19.6216C84.0629 19.9511 84.1121 20.1992 84.2106 20.3659C84.3091 20.5288 84.436 20.6405 84.5913 20.7011C84.7504 20.7579 84.9227 20.7864 85.1083 20.7864C85.2447 20.7864 85.364 20.7769 85.4663 20.7579C85.5685 20.739 85.6481 20.7239 85.7049 20.7125L86.0117 22.1159C85.9132 22.1538 85.7731 22.1917 85.5913 22.2295C85.4094 22.2712 85.1822 22.2939 84.9094 22.2977C84.4625 22.3053 84.0458 22.2257 83.6594 22.0591C83.2731 21.8924 82.9606 21.6348 82.7219 21.2864C82.4833 20.9379 82.364 20.5004 82.364 19.9739V11.3659ZM91.3995 22.3602C90.5397 22.3602 89.7991 22.1765 89.1779 21.8091C88.5605 21.4379 88.0832 20.917 87.7461 20.2466C87.4128 19.5723 87.2461 18.7826 87.2461 17.8773C87.2461 16.9833 87.4128 16.1954 87.7461 15.5136C88.0832 14.8318 88.5529 14.2996 89.1552 13.917C89.7612 13.5345 90.4696 13.3432 91.2802 13.3432C91.7726 13.3432 92.2499 13.4246 92.712 13.5875C93.1741 13.7504 93.5889 14.0061 93.9563 14.3545C94.3237 14.703 94.6135 15.1557 94.8256 15.7125C95.0378 16.2655 95.1438 16.9379 95.1438 17.7295V18.3318H88.2063V17.0591H93.479C93.479 16.6121 93.3881 16.2163 93.2063 15.8716C93.0245 15.5231 92.7688 15.2485 92.4393 15.0477C92.1135 14.847 91.7309 14.7466 91.2915 14.7466C90.8143 14.7466 90.3976 14.864 90.0415 15.0989C89.6893 15.3299 89.4165 15.6329 89.2234 16.0079C89.034 16.3792 88.9393 16.7826 88.9393 17.2182V18.2125C88.9393 18.7958 89.0415 19.292 89.2461 19.7011C89.4544 20.1102 89.7442 20.4227 90.1154 20.6386C90.4866 20.8507 90.9203 20.9568 91.4165 20.9568C91.7385 20.9568 92.0321 20.9114 92.2972 20.8204C92.5624 20.7257 92.7915 20.5856 92.9847 20.4C93.1779 20.2144 93.3256 19.9852 93.4279 19.7125L95.0359 20.0023C94.9071 20.4757 94.676 20.8905 94.3427 21.2466C94.0131 21.5989 93.5984 21.8735 93.0984 22.0704C92.6022 22.2636 92.0359 22.3602 91.3995 22.3602Z" fill="#36B933"/>
                    <path d="M36.0393 16.7748C36.0393 19.3247 36.0393 20.5997 35.2468 21.3916C34.4555 22.1841 33.1799 22.1841 30.63 22.1841C28.0801 22.1841 26.8051 22.1841 26.0126 21.3916C25.2207 20.6002 25.2207 19.3247 25.2207 16.7748C25.2207 14.2248 25.2207 12.9499 26.0126 12.1574C26.8056 11.3655 28.0801 11.3655 30.63 11.3655" stroke="#36B933" stroke-width="1.08797" stroke-linecap="round"/>
                    <path d="M25.2207 17.0452L26.1684 16.216C26.406 16.0083 26.7135 15.8987 27.0289 15.9092C27.3442 15.9197 27.6438 16.0497 27.8669 16.2728L30.1875 18.5934C30.3676 18.7734 30.6054 18.8842 30.8591 18.9061C31.1128 18.9281 31.3661 18.8599 31.5745 18.7135L31.7362 18.5999C32.0367 18.3888 32.4 18.2859 32.7666 18.308C33.1332 18.3301 33.4814 18.4759 33.7544 18.7216L35.4984 20.2908M32.2528 13.2587H34.1461M34.1461 13.2587H36.0393M34.1461 13.2587V15.152M34.1461 13.2587V11.3655" stroke="#36B933" stroke-width="1.08797" stroke-linecap="round"/>
                </svg>