<svg width="11" height="11" viewBox="0 0 11 11" fill="none" xmlns="http://www.w3.org/2000/svg">
<path d="M2.99808 1.53354C2.99808 1.53354 3.18028 1.42721 3.54469 1.21456C3.9091 1.0019 4.52281 0.895569 5.38583 0.895569C6.24885 0.895569 7.04477 1.10823 7.77359 1.53354C8.50241 1.95886 9.07947 2.53592 9.50479 3.26474C9.9301 3.99356 10.1428 4.78948 10.1428 5.6525C10.1428 6.51552 9.9301 7.31143 9.50479 8.04025C9.07947 8.76907 8.50241 9.34613 7.77359 9.77145C7.04477 10.1968 6.24885 10.4094 5.38583 10.4094C4.52281 10.4094 3.7269 10.1968 2.99808 9.77145C2.26926 9.34613 1.6922 8.76907 1.26688 8.04025C0.841564 7.31143 0.628906 6.51552 0.628906 5.6525C0.628906 4.78948 0.841564 3.99356 1.26688 3.26474C1.6922 2.53592 2.26926 1.95886 2.99808 1.53354ZM6.17865 8.61938V7.44254C6.17865 7.38473 6.16007 7.33621 6.12291 7.29698C6.08575 7.25775 6.04032 7.23814 5.98664 7.23814H4.79741C4.74373 7.23814 4.69624 7.25879 4.65495 7.30008C4.61366 7.34137 4.59301 7.38886 4.59301 7.44254V8.61938C4.59301 8.67306 4.61366 8.72055 4.65495 8.76184C4.69624 8.80314 4.74373 8.82378 4.79741 8.82378H5.98664C6.04032 8.82378 6.08575 8.80417 6.12291 8.76494C6.16007 8.72571 6.17865 8.67719 6.17865 8.61938ZM6.16627 6.48868L6.27776 2.64225C6.27776 2.5927 6.25711 2.55554 6.21582 2.53076C6.17453 2.49773 6.12497 2.48121 6.06716 2.48121H4.7045C4.64669 2.48121 4.59714 2.49773 4.55585 2.53076C4.51456 2.55554 4.49391 2.5927 4.49391 2.64225L4.59921 6.48868C4.59921 6.52997 4.61985 6.5661 4.66115 6.59707C4.70244 6.62804 4.75199 6.64352 4.8098 6.64352H5.95567C6.01348 6.64352 6.062 6.62804 6.10123 6.59707C6.14046 6.5661 6.16214 6.52997 6.16627 6.48868Z" fill="#BC1212"/>
</svg>
